{
  "asset": {
    "generator": "Khronos glTF Blender I/O v5.1.19",
    "version": "2.0"
  },
  "extensionsUsed": [
    "KHR_materials_clearcoat",
    "KHR_materials_anisotropy",
    "KHR_materials_ior",
    "KHR_texture_transform"
  ],
  "extensionsRequired": [
    "KHR_texture_transform"
  ],
  "scene": 0,
  "scenes": [
    {
      "name": "Scene",
      "nodes": [
        0,
        1,
        2,
        3,
        4,
        5,
        6
      ]
    }
  ],
  "nodes": [
    {
      "mesh": 0,
      "name": "Probe_MAT_CoreScaleTransform"
    },
    {
      "mesh": 1,
      "name": "Probe_MAT_IOR_Only",
      "translation": [
        1.5,
        0,
        0
      ]
    },
    {
      "mesh": 2,
      "name": "Probe_MAT_IOR_WithSpecular",
      "translation": [
        3,
        0,
        0
      ]
    },
    {
      "mesh": 3,
      "name": "Probe_MAT_ClearcoatFactor",
      "translation": [
        4.5,
        0,
        0
      ]
    },
    {
      "mesh": 4,
      "name": "Probe_MAT_ClearcoatTexture",
      "translation": [
        6,
        0,
        0
      ]
    },
    {
      "mesh": 5,
      "name": "Probe_MAT_AnisotropyFactor",
      "translation": [
        7.5,
        0,
        0
      ]
    },
    {
      "mesh": 6,
      "name": "Probe_MAT_AnisotropyTexture",
      "translation": [
        9,
        0,
        0
      ]
    }
  ],
  "materials": [
    {
      "doubleSided": true,
      "name": "MAT_CoreScaleTransform",
      "normalTexture": {
        "index": 0,
        "scale": 0.3499999940395355
      },
      "occlusionTexture": {
        "extensions": {
          "KHR_texture_transform": {
            "offset": [
              0.20000000298023224,
              0.14999999850988388
            ],
            "scale": [
              0.5,
              0.75
            ]
          }
        },
        "index": 1,
        "strength": 0.6000000238418579,
        "texCoord": 1
      },
      "pbrMetallicRoughness": {
        "baseColorTexture": {
          "extensions": {
            "KHR_texture_transform": {
              "offset": [
                -0.758883495801072,
                -0.13388345716529648
              ],
              "rotation": 0.7853981852531433,
              "scale": [
                1.25,
                1.25
              ]
            }
          },
          "index": 2,
          "texCoord": 1
        },
        "metallicFactor": 0.25,
        "roughnessFactor": 0.6000000238418579
      }
    },
    {
      "doubleSided": true,
      "name": "MAT_IOR_Only",
      "pbrMetallicRoughness": {
        "baseColorFactor": [
          0.6000000238418579,
          0.4000000059604645,
          0.20000000298023224,
          1
        ],
        "metallicFactor": 0.25,
        "roughnessFactor": 0.6000000238418579
      }
    },
    {
      "doubleSided": true,
      "extensions": {
        "KHR_materials_ior": {
          "ior": 1.3300000429153442
        }
      },
      "name": "MAT_IOR_Standalone_Derived",
      "pbrMetallicRoughness": {
        "baseColorFactor": [
          0.6000000238418579,
          0.4000000059604645,
          0.20000000298023224,
          1
        ],
        "metallicFactor": 0.25,
        "roughnessFactor": 0.6000000238418579
      }
    },
    {
      "doubleSided": true,
      "extensions": {
        "KHR_materials_clearcoat": {
          "clearcoatFactor": 0.6499999761581421,
          "clearcoatRoughnessFactor": 0.20000000298023224,
          "clearcoatNormalTexture": {
            "index": 3,
            "scale": 0.41999998688697815,
            "texCoord": 1
          }
        }
      },
      "name": "MAT_ClearcoatFactor",
      "pbrMetallicRoughness": {
        "baseColorFactor": [
          0.6000000238418579,
          0.4000000059604645,
          0.20000000298023224,
          1
        ],
        "metallicFactor": 0.25,
        "roughnessFactor": 0.6000000238418579
      }
    },
    {
      "doubleSided": true,
      "extensions": {
        "KHR_materials_clearcoat": {
          "clearcoatFactor": 1,
          "clearcoatRoughnessFactor": 1,
          "clearcoatTexture": {
            "index": 4
          },
          "clearcoatRoughnessTexture": {
            "index": 4,
            "texCoord": 1
          },
          "clearcoatNormalTexture": {
            "index": 5,
            "scale": 0.41999998688697815,
            "texCoord": 1
          }
        }
      },
      "name": "MAT_ClearcoatTexture",
      "pbrMetallicRoughness": {
        "baseColorFactor": [
          0.6000000238418579,
          0.4000000059604645,
          0.20000000298023224,
          1
        ],
        "metallicFactor": 0.25,
        "roughnessFactor": 0.6000000238418579
      }
    },
    {
      "doubleSided": true,
      "extensions": {
        "KHR_materials_anisotropy": {
          "anisotropyStrength": 0.699999988079071,
          "anisotropyRotation": 0.7853981633974483
        }
      },
      "name": "MAT_AnisotropyFactor",
      "pbrMetallicRoughness": {
        "baseColorFactor": [
          0.6000000238418579,
          0.4000000059604645,
          0.20000000298023224,
          1
        ],
        "roughnessFactor": 0.6000000238418579
      }
    },
    {
      "doubleSided": true,
      "extensions": {
        "KHR_materials_anisotropy": {
          "anisotropyStrength": 1,
          "anisotropyRotation": 0.7853981633974483,
          "anisotropyTexture": {
            "index": 6,
            "texCoord": 1
          }
        }
      },
      "name": "MAT_AnisotropyTexture",
      "pbrMetallicRoughness": {
        "baseColorFactor": [
          0.6000000238418579,
          0.4000000059604645,
          0.20000000298023224,
          1
        ],
        "roughnessFactor": 0.6000000238418579
      }
    }
  ],
  "meshes": [
    {
      "name": "Plane",
      "primitives": [
        {
          "attributes": {
            "POSITION": 0,
            "NORMAL": 1,
            "TEXCOORD_0": 2,
            "TEXCOORD_1": 3,
            "TANGENT": 4
          },
          "indices": 5,
          "material": 0
        }
      ]
    },
    {
      "name": "Plane.001",
      "primitives": [
        {
          "attributes": {
            "POSITION": 6,
            "NORMAL": 7,
            "TEXCOORD_0": 8,
            "TEXCOORD_1": 9,
            "TANGENT": 10
          },
          "indices": 5,
          "material": 1
        }
      ]
    },
    {
      "name": "Plane.002",
      "primitives": [
        {
          "attributes": {
            "POSITION": 11,
            "NORMAL": 12,
            "TEXCOORD_0": 13,
            "TEXCOORD_1": 14,
            "TANGENT": 15
          },
          "indices": 5,
          "material": 2
        }
      ]
    },
    {
      "name": "Plane.003",
      "primitives": [
        {
          "attributes": {
            "POSITION": 16,
            "NORMAL": 17,
            "TEXCOORD_0": 18,
            "TEXCOORD_1": 19,
            "TANGENT": 20
          },
          "indices": 5,
          "material": 3
        }
      ]
    },
    {
      "name": "Plane.004",
      "primitives": [
        {
          "attributes": {
            "POSITION": 21,
            "NORMAL": 22,
            "TEXCOORD_0": 23,
            "TEXCOORD_1": 24,
            "TANGENT": 25
          },
          "indices": 5,
          "material": 4
        }
      ]
    },
    {
      "name": "Plane.005",
      "primitives": [
        {
          "attributes": {
            "POSITION": 26,
            "NORMAL": 27,
            "TEXCOORD_0": 28,
            "TEXCOORD_1": 29,
            "TANGENT": 30
          },
          "indices": 5,
          "material": 5
        }
      ]
    },
    {
      "name": "Plane.006",
      "primitives": [
        {
          "attributes": {
            "POSITION": 31,
            "NORMAL": 32,
            "TEXCOORD_0": 33,
            "TEXCOORD_1": 34,
            "TANGENT": 35
          },
          "indices": 5,
          "material": 6
        }
      ]
    }
  ],
  "textures": [
    {
      "sampler": 0,
      "source": 0
    },
    {
      "sampler": 1,
      "source": 1
    },
    {
      "sampler": 0,
      "source": 2
    },
    {
      "sampler": 0,
      "source": 3
    },
    {
      "sampler": 0,
      "source": 4
    },
    {
      "sampler": 0,
      "source": 3
    },
    {
      "sampler": 0,
      "source": 5
    }
  ],
  "images": [
    {
      "mimeType": "image/png",
      "name": "Normal",
      "uri": "Textures/Normal.png"
    },
    {
      "mimeType": "image/png",
      "name": "Occlusion",
      "uri": "Textures/Occlusion.png"
    },
    {
      "mimeType": "image/png",
      "name": "BaseColor",
      "uri": "Textures/BaseColor.png"
    },
    {
      "mimeType": "image/png",
      "name": "CoatNormal",
      "uri": "Textures/CoatNormal.png"
    },
    {
      "mimeType": "image/png",
      "name": "CoatFactor-CoatRoughness",
      "uri": "Textures/CoatFactor-CoatRoughness.png"
    },
    {
      "mimeType": "image/png",
      "name": "Image",
      "uri": "Textures/Image.png"
    }
  ],
  "accessors": [
    {
      "bufferView": 0,
      "componentType": 5126,
      "count": 4,
      "max": [
        0.5,
        0,
        0.5
      ],
      "min": [
        -0.5,
        0,
        -0.5
      ],
      "type": "VEC3"
    },
    {
      "bufferView": 1,
      "componentType": 5126,
      "count": 4,
      "type": "VEC3"
    },
    {
      "bufferView": 2,
      "componentType": 5126,
      "count": 4,
      "type": "VEC2"
    },
    {
      "bufferView": 3,
      "componentType": 5126,
      "count": 4,
      "type": "VEC2"
    },
    {
      "bufferView": 4,
      "componentType": 5126,
      "count": 4,
      "type": "VEC4"
    },
    {
      "bufferView": 5,
      "componentType": 5123,
      "count": 6,
      "type": "SCALAR"
    },
    {
      "bufferView": 6,
      "componentType": 5126,
      "count": 4,
      "max": [
        0.5,
        0,
        0.5
      ],
      "min": [
        -0.5,
        0,
        -0.5
      ],
      "type": "VEC3"
    },
    {
      "bufferView": 7,
      "componentType": 5126,
      "count": 4,
      "type": "VEC3"
    },
    {
      "bufferView": 8,
      "componentType": 5126,
      "count": 4,
      "type": "VEC2"
    },
    {
      "bufferView": 9,
      "componentType": 5126,
      "count": 4,
      "type": "VEC2"
    },
    {
      "bufferView": 10,
      "componentType": 5126,
      "count": 4,
      "type": "VEC4"
    },
    {
      "bufferView": 11,
      "componentType": 5126,
      "count": 4,
      "max": [
        0.5,
        0,
        0.5
      ],
      "min": [
        -0.5,
        0,
        -0.5
      ],
      "type": "VEC3"
    },
    {
      "bufferView": 12,
      "componentType": 5126,
      "count": 4,
      "type": "VEC3"
    },
    {
      "bufferView": 13,
      "componentType": 5126,
      "count": 4,
      "type": "VEC2"
    },
    {
      "bufferView": 14,
      "componentType": 5126,
      "count": 4,
      "type": "VEC2"
    },
    {
      "bufferView": 15,
      "componentType": 5126,
      "count": 4,
      "type": "VEC4"
    },
    {
      "bufferView": 16,
      "componentType": 5126,
      "count": 4,
      "max": [
        0.5,
        0,
        0.5
      ],
      "min": [
        -0.5,
        0,
        -0.5
      ],
      "type": "VEC3"
    },
    {
      "bufferView": 17,
      "componentType": 5126,
      "count": 4,
      "type": "VEC3"
    },
    {
      "bufferView": 18,
      "componentType": 5126,
      "count": 4,
      "type": "VEC2"
    },
    {
      "bufferView": 19,
      "componentType": 5126,
      "count": 4,
      "type": "VEC2"
    },
    {
      "bufferView": 20,
      "componentType": 5126,
      "count": 4,
      "type": "VEC4"
    },
    {
      "bufferView": 21,
      "componentType": 5126,
      "count": 4,
      "max": [
        0.5,
        0,
        0.5
      ],
      "min": [
        -0.5,
        0,
        -0.5
      ],
      "type": "VEC3"
    },
    {
      "bufferView": 22,
      "componentType": 5126,
      "count": 4,
      "type": "VEC3"
    },
    {
      "bufferView": 23,
      "componentType": 5126,
      "count": 4,
      "type": "VEC2"
    },
    {
      "bufferView": 24,
      "componentType": 5126,
      "count": 4,
      "type": "VEC2"
    },
    {
      "bufferView": 25,
      "componentType": 5126,
      "count": 4,
      "type": "VEC4"
    },
    {
      "bufferView": 26,
      "componentType": 5126,
      "count": 4,
      "max": [
        0.5,
        0,
        0.5
      ],
      "min": [
        -0.5,
        0,
        -0.5
      ],
      "type": "VEC3"
    },
    {
      "bufferView": 27,
      "componentType": 5126,
      "count": 4,
      "type": "VEC3"
    },
    {
      "bufferView": 28,
      "componentType": 5126,
      "count": 4,
      "type": "VEC2"
    },
    {
      "bufferView": 29,
      "componentType": 5126,
      "count": 4,
      "type": "VEC2"
    },
    {
      "bufferView": 30,
      "componentType": 5126,
      "count": 4,
      "type": "VEC4"
    },
    {
      "bufferView": 31,
      "componentType": 5126,
      "count": 4,
      "max": [
        0.5,
        0,
        0.5
      ],
      "min": [
        -0.5,
        0,
        -0.5
      ],
      "type": "VEC3"
    },
    {
      "bufferView": 32,
      "componentType": 5126,
      "count": 4,
      "type": "VEC3"
    },
    {
      "bufferView": 33,
      "componentType": 5126,
      "count": 4,
      "type": "VEC2"
    },
    {
      "bufferView": 34,
      "componentType": 5126,
      "count": 4,
      "type": "VEC2"
    },
    {
      "bufferView": 35,
      "componentType": 5126,
      "count": 4,
      "type": "VEC4"
    }
  ],
  "bufferViews": [
    {
      "buffer": 0,
      "byteLength": 48,
      "byteOffset": 0,
      "target": 34962
    },
    {
      "buffer": 0,
      "byteLength": 48,
      "byteOffset": 48,
      "target": 34962
    },
    {
      "buffer": 0,
      "byteLength": 32,
      "byteOffset": 96,
      "target": 34962
    },
    {
      "buffer": 0,
      "byteLength": 32,
      "byteOffset": 128,
      "target": 34962
    },
    {
      "buffer": 0,
      "byteLength": 64,
      "byteOffset": 160,
      "target": 34962
    },
    {
      "buffer": 0,
      "byteLength": 12,
      "byteOffset": 224,
      "target": 34963
    },
    {
      "buffer": 0,
      "byteLength": 48,
      "byteOffset": 236,
      "target": 34962
    },
    {
      "buffer": 0,
      "byteLength": 48,
      "byteOffset": 284,
      "target": 34962
    },
    {
      "buffer": 0,
      "byteLength": 32,
      "byteOffset": 332,
      "target": 34962
    },
    {
      "buffer": 0,
      "byteLength": 32,
      "byteOffset": 364,
      "target": 34962
    },
    {
      "buffer": 0,
      "byteLength": 64,
      "byteOffset": 396,
      "target": 34962
    },
    {
      "buffer": 0,
      "byteLength": 48,
      "byteOffset": 460,
      "target": 34962
    },
    {
      "buffer": 0,
      "byteLength": 48,
      "byteOffset": 508,
      "target": 34962
    },
    {
      "buffer": 0,
      "byteLength": 32,
      "byteOffset": 556,
      "target": 34962
    },
    {
      "buffer": 0,
      "byteLength": 32,
      "byteOffset": 588,
      "target": 34962
    },
    {
      "buffer": 0,
      "byteLength": 64,
      "byteOffset": 620,
      "target": 34962
    },
    {
      "buffer": 0,
      "byteLength": 48,
      "byteOffset": 684,
      "target": 34962
    },
    {
      "buffer": 0,
      "byteLength": 48,
      "byteOffset": 732,
      "target": 34962
    },
    {
      "buffer": 0,
      "byteLength": 32,
      "byteOffset": 780,
      "target": 34962
    },
    {
      "buffer": 0,
      "byteLength": 32,
      "byteOffset": 812,
      "target": 34962
    },
    {
      "buffer": 0,
      "byteLength": 64,
      "byteOffset": 844,
      "target": 34962
    },
    {
      "buffer": 0,
      "byteLength": 48,
      "byteOffset": 908,
      "target": 34962
    },
    {
      "buffer": 0,
      "byteLength": 48,
      "byteOffset": 956,
      "target": 34962
    },
    {
      "buffer": 0,
      "byteLength": 32,
      "byteOffset": 1004,
      "target": 34962
    },
    {
      "buffer": 0,
      "byteLength": 32,
      "byteOffset": 1036,
      "target": 34962
    },
    {
      "buffer": 0,
      "byteLength": 64,
      "byteOffset": 1068,
      "target": 34962
    },
    {
      "buffer": 0,
      "byteLength": 48,
      "byteOffset": 1132,
      "target": 34962
    },
    {
      "buffer": 0,
      "byteLength": 48,
      "byteOffset": 1180,
      "target": 34962
    },
    {
      "buffer": 0,
      "byteLength": 32,
      "byteOffset": 1228,
      "target": 34962
    },
    {
      "buffer": 0,
      "byteLength": 32,
      "byteOffset": 1260,
      "target": 34962
    },
    {
      "buffer": 0,
      "byteLength": 64,
      "byteOffset": 1292,
      "target": 34962
    },
    {
      "buffer": 0,
      "byteLength": 48,
      "byteOffset": 1356,
      "target": 34962
    },
    {
      "buffer": 0,
      "byteLength": 48,
      "byteOffset": 1404,
      "target": 34962
    },
    {
      "buffer": 0,
      "byteLength": 32,
      "byteOffset": 1452,
      "target": 34962
    },
    {
      "buffer": 0,
      "byteLength": 32,
      "byteOffset": 1484,
      "target": 34962
    },
    {
      "buffer": 0,
      "byteLength": 64,
      "byteOffset": 1516,
      "target": 34962
    }
  ],
  "samplers": [
    {
      "magFilter": 9729,
      "minFilter": 9987
    },
    {
      "magFilter": 9729,
      "minFilter": 9987,
      "wrapS": 33071,
      "wrapT": 33071
    }
  ],
  "buffers": [
    {
      "byteLength": 1580,
      "uri": "GGLabMaterialExportProbe.bin"
    }
  ]
}
