{
  "asset": {
    "generator": "Khronos glTF Blender I/O v5.1.19",
    "version": "2.0"
  },
  "extensionsUsed": [
    "KHR_materials_clearcoat",
    "KHR_materials_ior"
  ],
  "scene": 0,
  "scenes": [
    {
      "name": "GGLabLightingContract",
      "nodes": [
        0,
        1,
        2,
        3,
        4,
        5,
        6,
        7,
        8,
        9,
        10,
        11,
        12,
        13,
        14,
        15,
        16,
        17,
        18,
        19,
        20,
        21,
        22,
        23,
        24,
        25,
        26,
        27,
        28,
        29,
        30,
        31,
        32,
        33,
        34,
        35,
        36,
        37,
        38,
        39,
        40,
        41,
        42,
        43
      ]
    }
  ],
  "nodes": [
    {
      "mesh": 0,
      "name": "Card_Reflectance_02",
      "rotation": [
        0.7071068286895752,
        0,
        0,
        0.7071068286895752
      ],
      "translation": [
        -3.299999952316284,
        2,
        0
      ]
    },
    {
      "mesh": 1,
      "name": "Card_Reflectance_18",
      "rotation": [
        0.7071068286895752,
        0,
        0,
        0.7071068286895752
      ],
      "translation": [
        -1.100000023841858,
        2,
        0
      ]
    },
    {
      "mesh": 2,
      "name": "Card_Reflectance_50",
      "rotation": [
        0.7071068286895752,
        0,
        0,
        0.7071068286895752
      ],
      "translation": [
        1.100000023841858,
        2,
        0
      ]
    },
    {
      "mesh": 3,
      "name": "Card_Reflectance_90",
      "rotation": [
        0.7071068286895752,
        0,
        0,
        0.7071068286895752
      ],
      "translation": [
        3.299999952316284,
        2,
        0
      ]
    },
    {
      "mesh": 4,
      "name": "Sphere_Matte",
      "translation": [
        12.699999809265137,
        0.800000011920929,
        0
      ]
    },
    {
      "mesh": 5,
      "name": "Sphere_RoughDielectric",
      "translation": [
        14.899999618530273,
        0.800000011920929,
        0
      ]
    },
    {
      "mesh": 6,
      "name": "Sphere_SmoothDielectric",
      "translation": [
        17.100000381469727,
        0.800000011920929,
        0
      ]
    },
    {
      "mesh": 7,
      "name": "Sphere_Metallic",
      "translation": [
        19.299999237060547,
        0.800000011920929,
        0
      ]
    },
    {
      "mesh": 8,
      "name": "Receiver_Horizontal",
      "translation": [
        29.399999618530273,
        1.399999976158142,
        0
      ]
    },
    {
      "mesh": 9,
      "name": "Receiver_Vertical",
      "rotation": [
        0.7071068286895752,
        0,
        0,
        0.7071068286895752
      ],
      "translation": [
        32,
        1.399999976158142,
        0
      ]
    },
    {
      "mesh": 10,
      "name": "Receiver_Tilt45",
      "rotation": [
        0.3826834559440613,
        0,
        0,
        0.9238795638084412
      ],
      "translation": [
        34.599998474121094,
        1.399999976158142,
        0
      ]
    },
    {
      "mesh": 11,
      "name": "Ground_Chart",
      "translation": [
        0,
        -0.05000000074505806,
        -1
      ]
    },
    {
      "mesh": 12,
      "name": "Ground_Spheres",
      "translation": [
        16,
        -0.05000000074505806,
        -1
      ]
    },
    {
      "mesh": 13,
      "name": "Ground_Angles",
      "translation": [
        32,
        -0.05000000074505806,
        -1
      ]
    },
    {
      "mesh": 14,
      "name": "Scale_OneMeter",
      "translation": [
        21,
        0.5,
        -3
      ]
    },
    {
      "name": "SUN_Direction_45deg",
      "rotation": [
        0.3826834559440613,
        0,
        0,
        0.9238795638084412
      ]
    },
    {
      "camera": 0,
      "name": "CAM_ExposureChart",
      "translation": [
        0,
        2,
        10
      ]
    },
    {
      "camera": 1,
      "name": "CAM_LightingSphere",
      "rotation": [
        -0.12993279099464417,
        0,
        0,
        0.9915227890014648
      ],
      "translation": [
        16,
        3.200000047683716,
        9
      ]
    },
    {
      "camera": 2,
      "name": "CAM_SunAngles",
      "rotation": [
        -0.286613404750824,
        0,
        0,
        0.9580463171005249
      ],
      "translation": [
        32,
        6,
        7
      ]
    },
    {
      "camera": 3,
      "name": "CAM_RoughnessSweep",
      "rotation": [
        -0.0574067048728466,
        0,
        0,
        0.9983508586883545
      ],
      "translation": [
        48,
        3.5,
        13
      ]
    },
    {
      "mesh": 15,
      "name": "SweepSphere_Dielectric_R000",
      "translation": [
        42.5,
        0.800000011920929,
        0
      ]
    },
    {
      "mesh": 16,
      "name": "SweepSphere_Dielectric_R005",
      "translation": [
        44.70000076293945,
        0.800000011920929,
        0
      ]
    },
    {
      "mesh": 17,
      "name": "SweepSphere_Dielectric_R010",
      "translation": [
        46.900001525878906,
        0.800000011920929,
        0
      ]
    },
    {
      "mesh": 18,
      "name": "SweepSphere_Dielectric_R025",
      "translation": [
        49.099998474121094,
        0.800000011920929,
        0
      ]
    },
    {
      "mesh": 19,
      "name": "SweepSphere_Dielectric_R050",
      "translation": [
        51.29999923706055,
        0.800000011920929,
        0
      ]
    },
    {
      "mesh": 20,
      "name": "SweepSphere_Dielectric_R100",
      "translation": [
        53.5,
        0.800000011920929,
        0
      ]
    },
    {
      "mesh": 21,
      "name": "SweepSphere_Metallic_R000",
      "translation": [
        42.5,
        3.200000047683716,
        0
      ]
    },
    {
      "mesh": 22,
      "name": "SweepSphere_Metallic_R005",
      "translation": [
        44.70000076293945,
        3.200000047683716,
        0
      ]
    },
    {
      "mesh": 23,
      "name": "SweepSphere_Metallic_R010",
      "translation": [
        46.900001525878906,
        3.200000047683716,
        0
      ]
    },
    {
      "mesh": 24,
      "name": "SweepSphere_Metallic_R025",
      "translation": [
        49.099998474121094,
        3.200000047683716,
        0
      ]
    },
    {
      "mesh": 25,
      "name": "SweepSphere_Metallic_R050",
      "translation": [
        51.29999923706055,
        3.200000047683716,
        0
      ]
    },
    {
      "mesh": 26,
      "name": "SweepSphere_Metallic_R100",
      "translation": [
        53.5,
        3.200000047683716,
        0
      ]
    },
    {
      "mesh": 27,
      "name": "Ground_RoughnessSweep",
      "translation": [
        48,
        -0.05000000074505806,
        -1
      ]
    },
    {
      "mesh": 28,
      "name": "Sphere_IOR_100",
      "translation": [
        12,
        2.700000047683716,
        0
      ]
    },
    {
      "mesh": 29,
      "name": "Sphere_IOR_133",
      "translation": [
        14,
        2.700000047683716,
        0
      ]
    },
    {
      "mesh": 30,
      "name": "Sphere_IOR_150",
      "translation": [
        16,
        2.700000047683716,
        0
      ]
    },
    {
      "mesh": 31,
      "name": "Sphere_IOR_170",
      "translation": [
        18,
        2.700000047683716,
        0
      ]
    },
    {
      "mesh": 32,
      "name": "Sphere_IOR_200",
      "translation": [
        20,
        2.700000047683716,
        0
      ]
    },
    {
      "mesh": 33,
      "name": "Ground_Clearcoat",
      "translation": [
        67,
        -0.05000000074505806,
        -1
      ]
    },
    {
      "mesh": 34,
      "name": "Sphere_Clearcoat_Off",
      "translation": [
        63.70000076293945,
        0.800000011920929,
        0
      ]
    },
    {
      "mesh": 35,
      "name": "Sphere_Clearcoat_Smooth",
      "translation": [
        65.9000015258789,
        0.800000011920929,
        0
      ]
    },
    {
      "mesh": 36,
      "name": "Sphere_Clearcoat_Rough",
      "translation": [
        68.0999984741211,
        0.800000011920929,
        0
      ]
    },
    {
      "mesh": 37,
      "name": "Sphere_Clearcoat_NormalScale",
      "translation": [
        70.30000305175781,
        0.800000011920929,
        0
      ]
    },
    {
      "camera": 4,
      "name": "CAM_Clearcoat",
      "rotation": [
        -0.11750037968158722,
        0,
        0,
        0.9930729269981384
      ],
      "translation": [
        67,
        3.200000047683716,
        10
      ]
    }
  ],
  "cameras": [
    {
      "name": "CAM_ExposureChart_Data",
      "perspective": {
        "aspectRatio": 1.7777777777777777,
        "yfov": 0.5483348957076358,
        "zfar": 100,
        "znear": 0.10000000149011612
      },
      "type": "perspective"
    },
    {
      "name": "CAM_LightingSphere_Data",
      "perspective": {
        "aspectRatio": 1.7777777777777777,
        "yfov": 0.6509917361266737,
        "zfar": 100,
        "znear": 0.10000000149011612
      },
      "type": "perspective"
    },
    {
      "name": "CAM_SunAngles_Data",
      "perspective": {
        "aspectRatio": 1.7777777777777777,
        "yfov": 0.6128792659619432,
        "zfar": 100,
        "znear": 0.10000000149011612
      },
      "type": "perspective"
    },
    {
      "name": "CAM_RoughnessSweep_Data",
      "perspective": {
        "aspectRatio": 1.7777777777777777,
        "yfov": 0.6509917361266737,
        "zfar": 100,
        "znear": 0.10000000149011612
      },
      "type": "perspective"
    },
    {
      "name": "CAM_Clearcoat_Data",
      "perspective": {
        "aspectRatio": 1.7777777777777777,
        "yfov": 0.6509917361266737,
        "zfar": 100,
        "znear": 0.10000000149011612
      },
      "type": "perspective"
    }
  ],
  "materials": [
    {
      "doubleSided": true,
      "name": "MAT_Reflectance_02",
      "pbrMetallicRoughness": {
        "baseColorFactor": [
          0.019999999552965164,
          0.019999999552965164,
          0.019999999552965164,
          1
        ],
        "metallicFactor": 0
      }
    },
    {
      "doubleSided": true,
      "name": "MAT_Reflectance_18",
      "pbrMetallicRoughness": {
        "baseColorFactor": [
          0.18000000715255737,
          0.18000000715255737,
          0.18000000715255737,
          1
        ],
        "metallicFactor": 0
      }
    },
    {
      "doubleSided": true,
      "name": "MAT_Reflectance_50",
      "pbrMetallicRoughness": {
        "baseColorFactor": [
          0.5,
          0.5,
          0.5,
          1
        ],
        "metallicFactor": 0
      }
    },
    {
      "doubleSided": true,
      "name": "MAT_Reflectance_90",
      "pbrMetallicRoughness": {
        "baseColorFactor": [
          0.8999999761581421,
          0.8999999761581421,
          0.8999999761581421,
          1
        ],
        "metallicFactor": 0
      }
    },
    {
      "doubleSided": true,
      "name": "MAT_Sphere_Matte",
      "pbrMetallicRoughness": {
        "baseColorFactor": [
          0.18000000715255737,
          0.18000000715255737,
          0.18000000715255737,
          1
        ],
        "metallicFactor": 0
      }
    },
    {
      "doubleSided": true,
      "name": "MAT_Sphere_RoughDielectric",
      "pbrMetallicRoughness": {
        "baseColorFactor": [
          0.18000000715255737,
          0.18000000715255737,
          0.18000000715255737,
          1
        ],
        "metallicFactor": 0,
        "roughnessFactor": 0.5
      }
    },
    {
      "doubleSided": true,
      "name": "MAT_Sphere_SmoothDielectric",
      "pbrMetallicRoughness": {
        "baseColorFactor": [
          0.18000000715255737,
          0.18000000715255737,
          0.18000000715255737,
          1
        ],
        "metallicFactor": 0,
        "roughnessFactor": 0.05000000074505806
      }
    },
    {
      "doubleSided": true,
      "name": "MAT_Sphere_Metallic",
      "pbrMetallicRoughness": {
        "baseColorFactor": [
          0.18000000715255737,
          0.18000000715255737,
          0.18000000715255737,
          1
        ],
        "roughnessFactor": 0.10000000149011612
      }
    },
    {
      "doubleSided": true,
      "name": "MAT_Ground",
      "pbrMetallicRoughness": {
        "baseColorFactor": [
          0.07999999821186066,
          0.07999999821186066,
          0.07999999821186066,
          1
        ],
        "metallicFactor": 0
      }
    },
    {
      "doubleSided": true,
      "name": "MAT_Sweep_Dielectric_R000",
      "pbrMetallicRoughness": {
        "baseColorFactor": [
          0.18000000715255737,
          0.18000000715255737,
          0.18000000715255737,
          1
        ],
        "metallicFactor": 0,
        "roughnessFactor": 0
      }
    },
    {
      "doubleSided": true,
      "name": "MAT_Sweep_Dielectric_R005",
      "pbrMetallicRoughness": {
        "baseColorFactor": [
          0.18000000715255737,
          0.18000000715255737,
          0.18000000715255737,
          1
        ],
        "metallicFactor": 0,
        "roughnessFactor": 0.05000000074505806
      }
    },
    {
      "doubleSided": true,
      "name": "MAT_Sweep_Dielectric_R010",
      "pbrMetallicRoughness": {
        "baseColorFactor": [
          0.18000000715255737,
          0.18000000715255737,
          0.18000000715255737,
          1
        ],
        "metallicFactor": 0,
        "roughnessFactor": 0.10000000149011612
      }
    },
    {
      "doubleSided": true,
      "name": "MAT_Sweep_Dielectric_R025",
      "pbrMetallicRoughness": {
        "baseColorFactor": [
          0.18000000715255737,
          0.18000000715255737,
          0.18000000715255737,
          1
        ],
        "metallicFactor": 0,
        "roughnessFactor": 0.25
      }
    },
    {
      "doubleSided": true,
      "name": "MAT_Sweep_Dielectric_R050",
      "pbrMetallicRoughness": {
        "baseColorFactor": [
          0.18000000715255737,
          0.18000000715255737,
          0.18000000715255737,
          1
        ],
        "metallicFactor": 0,
        "roughnessFactor": 0.5
      }
    },
    {
      "doubleSided": true,
      "name": "MAT_Sweep_Dielectric_R100",
      "pbrMetallicRoughness": {
        "baseColorFactor": [
          0.18000000715255737,
          0.18000000715255737,
          0.18000000715255737,
          1
        ],
        "metallicFactor": 0
      }
    },
    {
      "doubleSided": true,
      "name": "MAT_Sweep_Metallic_R000",
      "pbrMetallicRoughness": {
        "baseColorFactor": [
          0.18000000715255737,
          0.18000000715255737,
          0.18000000715255737,
          1
        ],
        "roughnessFactor": 0
      }
    },
    {
      "doubleSided": true,
      "name": "MAT_Sweep_Metallic_R005",
      "pbrMetallicRoughness": {
        "baseColorFactor": [
          0.18000000715255737,
          0.18000000715255737,
          0.18000000715255737,
          1
        ],
        "roughnessFactor": 0.05000000074505806
      }
    },
    {
      "doubleSided": true,
      "name": "MAT_Sweep_Metallic_R010",
      "pbrMetallicRoughness": {
        "baseColorFactor": [
          0.18000000715255737,
          0.18000000715255737,
          0.18000000715255737,
          1
        ],
        "roughnessFactor": 0.10000000149011612
      }
    },
    {
      "doubleSided": true,
      "name": "MAT_Sweep_Metallic_R025",
      "pbrMetallicRoughness": {
        "baseColorFactor": [
          0.18000000715255737,
          0.18000000715255737,
          0.18000000715255737,
          1
        ],
        "roughnessFactor": 0.25
      }
    },
    {
      "doubleSided": true,
      "name": "MAT_Sweep_Metallic_R050",
      "pbrMetallicRoughness": {
        "baseColorFactor": [
          0.18000000715255737,
          0.18000000715255737,
          0.18000000715255737,
          1
        ],
        "roughnessFactor": 0.5
      }
    },
    {
      "doubleSided": true,
      "name": "MAT_Sweep_Metallic_R100",
      "pbrMetallicRoughness": {
        "baseColorFactor": [
          0.18000000715255737,
          0.18000000715255737,
          0.18000000715255737,
          1
        ]
      }
    },
    {
      "doubleSided": true,
      "extensions": {
        "KHR_materials_ior": {
          "ior": 1
        }
      },
      "name": "MAT_IOR_100",
      "pbrMetallicRoughness": {
        "baseColorFactor": [
          0.18000000715255737,
          0.18000000715255737,
          0.18000000715255737,
          1
        ],
        "metallicFactor": 0,
        "roughnessFactor": 0.25
      }
    },
    {
      "doubleSided": true,
      "extensions": {
        "KHR_materials_ior": {
          "ior": 1.3300000429153442
        }
      },
      "name": "MAT_IOR_133",
      "pbrMetallicRoughness": {
        "baseColorFactor": [
          0.18000000715255737,
          0.18000000715255737,
          0.18000000715255737,
          1
        ],
        "metallicFactor": 0,
        "roughnessFactor": 0.25
      }
    },
    {
      "doubleSided": true,
      "name": "MAT_IOR_150",
      "pbrMetallicRoughness": {
        "baseColorFactor": [
          0.18000000715255737,
          0.18000000715255737,
          0.18000000715255737,
          1
        ],
        "metallicFactor": 0,
        "roughnessFactor": 0.25
      }
    },
    {
      "doubleSided": true,
      "extensions": {
        "KHR_materials_ior": {
          "ior": 1.7000000476837158
        }
      },
      "name": "MAT_IOR_170",
      "pbrMetallicRoughness": {
        "baseColorFactor": [
          0.18000000715255737,
          0.18000000715255737,
          0.18000000715255737,
          1
        ],
        "metallicFactor": 0,
        "roughnessFactor": 0.25
      }
    },
    {
      "doubleSided": true,
      "extensions": {
        "KHR_materials_ior": {
          "ior": 2
        }
      },
      "name": "MAT_IOR_200",
      "pbrMetallicRoughness": {
        "baseColorFactor": [
          0.18000000715255737,
          0.18000000715255737,
          0.18000000715255737,
          1
        ],
        "metallicFactor": 0,
        "roughnessFactor": 0.25
      }
    },
    {
      "doubleSided": true,
      "extensions": {
        "KHR_materials_clearcoat": {
          "clearcoatRoughnessFactor": 0.07999999821186066
        }
      },
      "name": "MAT_Clearcoat_Off",
      "pbrMetallicRoughness": {
        "baseColorFactor": [
          0.18000000715255737,
          0.18000000715255737,
          0.18000000715255737,
          1
        ],
        "metallicFactor": 0,
        "roughnessFactor": 0.41999998688697815
      }
    },
    {
      "doubleSided": true,
      "extensions": {
        "KHR_materials_clearcoat": {
          "clearcoatFactor": 0.800000011920929,
          "clearcoatRoughnessFactor": 0.07999999821186066
        }
      },
      "name": "MAT_Clearcoat_Smooth",
      "pbrMetallicRoughness": {
        "baseColorFactor": [
          0.18000000715255737,
          0.18000000715255737,
          0.18000000715255737,
          1
        ],
        "metallicFactor": 0,
        "roughnessFactor": 0.41999998688697815
      }
    },
    {
      "doubleSided": true,
      "extensions": {
        "KHR_materials_clearcoat": {
          "clearcoatFactor": 0.800000011920929,
          "clearcoatRoughnessFactor": 0.3199999928474426
        }
      },
      "name": "MAT_Clearcoat_Rough",
      "pbrMetallicRoughness": {
        "baseColorFactor": [
          0.18000000715255737,
          0.18000000715255737,
          0.18000000715255737,
          1
        ],
        "metallicFactor": 0,
        "roughnessFactor": 0.41999998688697815
      }
    },
    {
      "doubleSided": true,
      "extensions": {
        "KHR_materials_clearcoat": {
          "clearcoatFactor": 0.800000011920929,
          "clearcoatRoughnessFactor": 0.07999999821186066,
          "clearcoatNormalTexture": {
            "index": 0,
            "scale": 0.44999998807907104
          }
        }
      },
      "name": "MAT_Clearcoat_NormalScale",
      "pbrMetallicRoughness": {
        "baseColorFactor": [
          0.18000000715255737,
          0.18000000715255737,
          0.18000000715255737,
          1
        ],
        "metallicFactor": 0,
        "roughnessFactor": 0.41999998688697815
      }
    }
  ],
  "meshes": [
    {
      "name": "Card_Reflectance_02_Mesh",
      "primitives": [
        {
          "attributes": {
            "POSITION": 0,
            "NORMAL": 1,
            "TEXCOORD_0": 2,
            "TANGENT": 3
          },
          "indices": 4,
          "material": 0
        }
      ]
    },
    {
      "name": "Card_Reflectance_18_Mesh",
      "primitives": [
        {
          "attributes": {
            "POSITION": 5,
            "NORMAL": 6,
            "TEXCOORD_0": 7,
            "TANGENT": 8
          },
          "indices": 4,
          "material": 1
        }
      ]
    },
    {
      "name": "Card_Reflectance_50_Mesh",
      "primitives": [
        {
          "attributes": {
            "POSITION": 9,
            "NORMAL": 10,
            "TEXCOORD_0": 11,
            "TANGENT": 12
          },
          "indices": 4,
          "material": 2
        }
      ]
    },
    {
      "name": "Card_Reflectance_90_Mesh",
      "primitives": [
        {
          "attributes": {
            "POSITION": 13,
            "NORMAL": 14,
            "TEXCOORD_0": 15,
            "TANGENT": 16
          },
          "indices": 4,
          "material": 3
        }
      ]
    },
    {
      "name": "Sphere_Matte_Mesh",
      "primitives": [
        {
          "attributes": {
            "POSITION": 17,
            "NORMAL": 18,
            "TEXCOORD_0": 19,
            "TANGENT": 20
          },
          "indices": 21,
          "material": 4
        }
      ]
    },
    {
      "name": "Sphere_RoughDielectric_Mesh",
      "primitives": [
        {
          "attributes": {
            "POSITION": 22,
            "NORMAL": 23,
            "TEXCOORD_0": 24,
            "TANGENT": 25
          },
          "indices": 26,
          "material": 5
        }
      ]
    },
    {
      "name": "Sphere_SmoothDielectric_Mesh",
      "primitives": [
        {
          "attributes": {
            "POSITION": 27,
            "NORMAL": 28,
            "TEXCOORD_0": 29,
            "TANGENT": 30
          },
          "indices": 31,
          "material": 6
        }
      ]
    },
    {
      "name": "Sphere_Metallic_Mesh",
      "primitives": [
        {
          "attributes": {
            "POSITION": 32,
            "NORMAL": 33,
            "TEXCOORD_0": 34,
            "TANGENT": 35
          },
          "indices": 36,
          "material": 7
        }
      ]
    },
    {
      "name": "Receiver_Horizontal_Mesh",
      "primitives": [
        {
          "attributes": {
            "POSITION": 37,
            "NORMAL": 38,
            "TEXCOORD_0": 39,
            "TANGENT": 40
          },
          "indices": 4,
          "material": 1
        }
      ]
    },
    {
      "name": "Receiver_Vertical_Mesh",
      "primitives": [
        {
          "attributes": {
            "POSITION": 41,
            "NORMAL": 42,
            "TEXCOORD_0": 43,
            "TANGENT": 44
          },
          "indices": 4,
          "material": 1
        }
      ]
    },
    {
      "name": "Receiver_Tilt45_Mesh",
      "primitives": [
        {
          "attributes": {
            "POSITION": 45,
            "NORMAL": 46,
            "TEXCOORD_0": 47,
            "TANGENT": 48
          },
          "indices": 4,
          "material": 1
        }
      ]
    },
    {
      "name": "Ground_Chart_Mesh",
      "primitives": [
        {
          "attributes": {
            "POSITION": 49,
            "NORMAL": 50,
            "TEXCOORD_0": 51,
            "TANGENT": 52
          },
          "indices": 53,
          "material": 8
        }
      ]
    },
    {
      "name": "Ground_Spheres_Mesh",
      "primitives": [
        {
          "attributes": {
            "POSITION": 54,
            "NORMAL": 55,
            "TEXCOORD_0": 56,
            "TANGENT": 57
          },
          "indices": 53,
          "material": 8
        }
      ]
    },
    {
      "name": "Ground_Angles_Mesh",
      "primitives": [
        {
          "attributes": {
            "POSITION": 58,
            "NORMAL": 59,
            "TEXCOORD_0": 60,
            "TANGENT": 61
          },
          "indices": 53,
          "material": 8
        }
      ]
    },
    {
      "name": "Scale_OneMeter_Mesh",
      "primitives": [
        {
          "attributes": {
            "POSITION": 62,
            "NORMAL": 63,
            "TEXCOORD_0": 64,
            "TANGENT": 65
          },
          "indices": 53,
          "material": 1
        }
      ]
    },
    {
      "name": "SweepSphere_Dielectric_R000_Mesh",
      "primitives": [
        {
          "attributes": {
            "POSITION": 66,
            "NORMAL": 67,
            "TEXCOORD_0": 68,
            "TANGENT": 69
          },
          "indices": 70,
          "material": 9
        }
      ]
    },
    {
      "name": "SweepSphere_Dielectric_R005_Mesh",
      "primitives": [
        {
          "attributes": {
            "POSITION": 71,
            "NORMAL": 72,
            "TEXCOORD_0": 73,
            "TANGENT": 74
          },
          "indices": 75,
          "material": 10
        }
      ]
    },
    {
      "name": "SweepSphere_Dielectric_R010_Mesh",
      "primitives": [
        {
          "attributes": {
            "POSITION": 76,
            "NORMAL": 77,
            "TEXCOORD_0": 78,
            "TANGENT": 79
          },
          "indices": 80,
          "material": 11
        }
      ]
    },
    {
      "name": "SweepSphere_Dielectric_R025_Mesh",
      "primitives": [
        {
          "attributes": {
            "POSITION": 81,
            "NORMAL": 82,
            "TEXCOORD_0": 83,
            "TANGENT": 84
          },
          "indices": 85,
          "material": 12
        }
      ]
    },
    {
      "name": "SweepSphere_Dielectric_R050_Mesh",
      "primitives": [
        {
          "attributes": {
            "POSITION": 86,
            "NORMAL": 87,
            "TEXCOORD_0": 88,
            "TANGENT": 89
          },
          "indices": 90,
          "material": 13
        }
      ]
    },
    {
      "name": "SweepSphere_Dielectric_R100_Mesh",
      "primitives": [
        {
          "attributes": {
            "POSITION": 91,
            "NORMAL": 92,
            "TEXCOORD_0": 93,
            "TANGENT": 94
          },
          "indices": 95,
          "material": 14
        }
      ]
    },
    {
      "name": "SweepSphere_Metallic_R000_Mesh",
      "primitives": [
        {
          "attributes": {
            "POSITION": 96,
            "NORMAL": 97,
            "TEXCOORD_0": 98,
            "TANGENT": 99
          },
          "indices": 100,
          "material": 15
        }
      ]
    },
    {
      "name": "SweepSphere_Metallic_R005_Mesh",
      "primitives": [
        {
          "attributes": {
            "POSITION": 101,
            "NORMAL": 102,
            "TEXCOORD_0": 103,
            "TANGENT": 104
          },
          "indices": 105,
          "material": 16
        }
      ]
    },
    {
      "name": "SweepSphere_Metallic_R010_Mesh",
      "primitives": [
        {
          "attributes": {
            "POSITION": 106,
            "NORMAL": 107,
            "TEXCOORD_0": 108,
            "TANGENT": 109
          },
          "indices": 110,
          "material": 17
        }
      ]
    },
    {
      "name": "SweepSphere_Metallic_R025_Mesh",
      "primitives": [
        {
          "attributes": {
            "POSITION": 111,
            "NORMAL": 112,
            "TEXCOORD_0": 113,
            "TANGENT": 114
          },
          "indices": 115,
          "material": 18
        }
      ]
    },
    {
      "name": "SweepSphere_Metallic_R050_Mesh",
      "primitives": [
        {
          "attributes": {
            "POSITION": 116,
            "NORMAL": 117,
            "TEXCOORD_0": 118,
            "TANGENT": 119
          },
          "indices": 120,
          "material": 19
        }
      ]
    },
    {
      "name": "SweepSphere_Metallic_R100_Mesh",
      "primitives": [
        {
          "attributes": {
            "POSITION": 121,
            "NORMAL": 122,
            "TEXCOORD_0": 123,
            "TANGENT": 124
          },
          "indices": 125,
          "material": 20
        }
      ]
    },
    {
      "name": "Ground_RoughnessSweep_Mesh",
      "primitives": [
        {
          "attributes": {
            "POSITION": 126,
            "NORMAL": 127,
            "TEXCOORD_0": 128,
            "TANGENT": 129
          },
          "indices": 53,
          "material": 8
        }
      ]
    },
    {
      "name": "Sphere_IOR_100_Mesh",
      "primitives": [
        {
          "attributes": {
            "POSITION": 130,
            "NORMAL": 131,
            "TEXCOORD_0": 132,
            "TANGENT": 133
          },
          "indices": 134,
          "material": 21
        }
      ]
    },
    {
      "name": "Sphere_IOR_133_Mesh",
      "primitives": [
        {
          "attributes": {
            "POSITION": 135,
            "NORMAL": 136,
            "TEXCOORD_0": 137,
            "TANGENT": 138
          },
          "indices": 139,
          "material": 22
        }
      ]
    },
    {
      "name": "Sphere_IOR_150_Mesh",
      "primitives": [
        {
          "attributes": {
            "POSITION": 140,
            "NORMAL": 141,
            "TEXCOORD_0": 142,
            "TANGENT": 143
          },
          "indices": 144,
          "material": 23
        }
      ]
    },
    {
      "name": "Sphere_IOR_170_Mesh",
      "primitives": [
        {
          "attributes": {
            "POSITION": 145,
            "NORMAL": 146,
            "TEXCOORD_0": 147,
            "TANGENT": 148
          },
          "indices": 149,
          "material": 24
        }
      ]
    },
    {
      "name": "Sphere_IOR_200_Mesh",
      "primitives": [
        {
          "attributes": {
            "POSITION": 150,
            "NORMAL": 151,
            "TEXCOORD_0": 152,
            "TANGENT": 153
          },
          "indices": 154,
          "material": 25
        }
      ]
    },
    {
      "name": "Ground_Clearcoat_Mesh",
      "primitives": [
        {
          "attributes": {
            "POSITION": 155,
            "NORMAL": 156,
            "TEXCOORD_0": 157,
            "TANGENT": 158
          },
          "indices": 53,
          "material": 8
        }
      ]
    },
    {
      "name": "Sphere_Clearcoat_Off_Mesh",
      "primitives": [
        {
          "attributes": {
            "POSITION": 159,
            "NORMAL": 160,
            "TEXCOORD_0": 161,
            "TANGENT": 162
          },
          "indices": 163,
          "material": 26
        }
      ]
    },
    {
      "name": "Sphere_Clearcoat_Smooth_Mesh",
      "primitives": [
        {
          "attributes": {
            "POSITION": 164,
            "NORMAL": 165,
            "TEXCOORD_0": 166,
            "TANGENT": 167
          },
          "indices": 168,
          "material": 27
        }
      ]
    },
    {
      "name": "Sphere_Clearcoat_Rough_Mesh",
      "primitives": [
        {
          "attributes": {
            "POSITION": 169,
            "NORMAL": 170,
            "TEXCOORD_0": 171,
            "TANGENT": 172
          },
          "indices": 173,
          "material": 28
        }
      ]
    },
    {
      "name": "Sphere_Clearcoat_NormalScale_Mesh",
      "primitives": [
        {
          "attributes": {
            "POSITION": 174,
            "NORMAL": 175,
            "TEXCOORD_0": 176,
            "TANGENT": 177
          },
          "indices": 178,
          "material": 29
        }
      ]
    }
  ],
  "textures": [
    {
      "sampler": 0,
      "source": 0
    }
  ],
  "images": [
    {
      "mimeType": "image/png",
      "name": "ClearcoatNormal",
      "uri": "Textures/ClearcoatNormal.png"
    }
  ],
  "accessors": [
    {
      "bufferView": 0,
      "componentType": 5126,
      "count": 4,
      "max": [
        0.8999999761581421,
        0,
        0.8999999761581421
      ],
      "min": [
        -0.8999999761581421,
        0,
        -0.8999999761581421
      ],
      "type": "VEC3"
    },
    {
      "bufferView": 1,
      "componentType": 5126,
      "count": 4,
      "type": "VEC3"
    },
    {
      "bufferView": 2,
      "componentType": 5126,
      "count": 4,
      "type": "VEC2"
    },
    {
      "bufferView": 3,
      "componentType": 5126,
      "count": 4,
      "type": "VEC4"
    },
    {
      "bufferView": 4,
      "componentType": 5123,
      "count": 6,
      "type": "SCALAR"
    },
    {
      "bufferView": 5,
      "componentType": 5126,
      "count": 4,
      "max": [
        0.8999999761581421,
        0,
        0.8999999761581421
      ],
      "min": [
        -0.8999999761581421,
        0,
        -0.8999999761581421
      ],
      "type": "VEC3"
    },
    {
      "bufferView": 6,
      "componentType": 5126,
      "count": 4,
      "type": "VEC3"
    },
    {
      "bufferView": 7,
      "componentType": 5126,
      "count": 4,
      "type": "VEC2"
    },
    {
      "bufferView": 8,
      "componentType": 5126,
      "count": 4,
      "type": "VEC4"
    },
    {
      "bufferView": 9,
      "componentType": 5126,
      "count": 4,
      "max": [
        0.8999999761581421,
        0,
        0.8999999761581421
      ],
      "min": [
        -0.8999999761581421,
        0,
        -0.8999999761581421
      ],
      "type": "VEC3"
    },
    {
      "bufferView": 10,
      "componentType": 5126,
      "count": 4,
      "type": "VEC3"
    },
    {
      "bufferView": 11,
      "componentType": 5126,
      "count": 4,
      "type": "VEC2"
    },
    {
      "bufferView": 12,
      "componentType": 5126,
      "count": 4,
      "type": "VEC4"
    },
    {
      "bufferView": 13,
      "componentType": 5126,
      "count": 4,
      "max": [
        0.8999999761581421,
        0,
        0.8999999761581421
      ],
      "min": [
        -0.8999999761581421,
        0,
        -0.8999999761581421
      ],
      "type": "VEC3"
    },
    {
      "bufferView": 14,
      "componentType": 5126,
      "count": 4,
      "type": "VEC3"
    },
    {
      "bufferView": 15,
      "componentType": 5126,
      "count": 4,
      "type": "VEC2"
    },
    {
      "bufferView": 16,
      "componentType": 5126,
      "count": 4,
      "type": "VEC4"
    },
    {
      "bufferView": 17,
      "componentType": 5126,
      "count": 2143,
      "max": [
        0.7999998927116394,
        0.800000011920929,
        0.7999997735023499
      ],
      "min": [
        -0.7999995946884155,
        -0.800000011920929,
        -0.800000011920929
      ],
      "type": "VEC3"
    },
    {
      "bufferView": 18,
      "componentType": 5126,
      "count": 2143,
      "type": "VEC3"
    },
    {
      "bufferView": 19,
      "componentType": 5126,
      "count": 2143,
      "type": "VEC2"
    },
    {
      "bufferView": 20,
      "componentType": 5126,
      "count": 2143,
      "type": "VEC4"
    },
    {
      "bufferView": 21,
      "componentType": 5123,
      "count": 11904,
      "type": "SCALAR"
    },
    {
      "bufferView": 22,
      "componentType": 5126,
      "count": 2143,
      "max": [
        0.7999998927116394,
        0.800000011920929,
        0.7999997735023499
      ],
      "min": [
        -0.7999995946884155,
        -0.800000011920929,
        -0.800000011920929
      ],
      "type": "VEC3"
    },
    {
      "bufferView": 23,
      "componentType": 5126,
      "count": 2143,
      "type": "VEC3"
    },
    {
      "bufferView": 24,
      "componentType": 5126,
      "count": 2143,
      "type": "VEC2"
    },
    {
      "bufferView": 25,
      "componentType": 5126,
      "count": 2143,
      "type": "VEC4"
    },
    {
      "bufferView": 26,
      "componentType": 5123,
      "count": 11904,
      "type": "SCALAR"
    },
    {
      "bufferView": 27,
      "componentType": 5126,
      "count": 2143,
      "max": [
        0.7999998927116394,
        0.800000011920929,
        0.7999997735023499
      ],
      "min": [
        -0.7999995946884155,
        -0.800000011920929,
        -0.800000011920929
      ],
      "type": "VEC3"
    },
    {
      "bufferView": 28,
      "componentType": 5126,
      "count": 2143,
      "type": "VEC3"
    },
    {
      "bufferView": 29,
      "componentType": 5126,
      "count": 2143,
      "type": "VEC2"
    },
    {
      "bufferView": 30,
      "componentType": 5126,
      "count": 2143,
      "type": "VEC4"
    },
    {
      "bufferView": 31,
      "componentType": 5123,
      "count": 11904,
      "type": "SCALAR"
    },
    {
      "bufferView": 32,
      "componentType": 5126,
      "count": 2143,
      "max": [
        0.7999998927116394,
        0.800000011920929,
        0.7999997735023499
      ],
      "min": [
        -0.7999995946884155,
        -0.800000011920929,
        -0.800000011920929
      ],
      "type": "VEC3"
    },
    {
      "bufferView": 33,
      "componentType": 5126,
      "count": 2143,
      "type": "VEC3"
    },
    {
      "bufferView": 34,
      "componentType": 5126,
      "count": 2143,
      "type": "VEC2"
    },
    {
      "bufferView": 35,
      "componentType": 5126,
      "count": 2143,
      "type": "VEC4"
    },
    {
      "bufferView": 36,
      "componentType": 5123,
      "count": 11904,
      "type": "SCALAR"
    },
    {
      "bufferView": 37,
      "componentType": 5126,
      "count": 4,
      "max": [
        0.8999999761581421,
        0,
        0.8999999761581421
      ],
      "min": [
        -0.8999999761581421,
        0,
        -0.8999999761581421
      ],
      "type": "VEC3"
    },
    {
      "bufferView": 38,
      "componentType": 5126,
      "count": 4,
      "type": "VEC3"
    },
    {
      "bufferView": 39,
      "componentType": 5126,
      "count": 4,
      "type": "VEC2"
    },
    {
      "bufferView": 40,
      "componentType": 5126,
      "count": 4,
      "type": "VEC4"
    },
    {
      "bufferView": 41,
      "componentType": 5126,
      "count": 4,
      "max": [
        0.8999999761581421,
        0,
        0.8999999761581421
      ],
      "min": [
        -0.8999999761581421,
        0,
        -0.8999999761581421
      ],
      "type": "VEC3"
    },
    {
      "bufferView": 42,
      "componentType": 5126,
      "count": 4,
      "type": "VEC3"
    },
    {
      "bufferView": 43,
      "componentType": 5126,
      "count": 4,
      "type": "VEC2"
    },
    {
      "bufferView": 44,
      "componentType": 5126,
      "count": 4,
      "type": "VEC4"
    },
    {
      "bufferView": 45,
      "componentType": 5126,
      "count": 4,
      "max": [
        0.8999999761581421,
        0,
        0.8999999761581421
      ],
      "min": [
        -0.8999999761581421,
        0,
        -0.8999999761581421
      ],
      "type": "VEC3"
    },
    {
      "bufferView": 46,
      "componentType": 5126,
      "count": 4,
      "type": "VEC3"
    },
    {
      "bufferView": 47,
      "componentType": 5126,
      "count": 4,
      "type": "VEC2"
    },
    {
      "bufferView": 48,
      "componentType": 5126,
      "count": 4,
      "type": "VEC4"
    },
    {
      "bufferView": 49,
      "componentType": 5126,
      "count": 24,
      "max": [
        6,
        0.05000000074505806,
        4
      ],
      "min": [
        -6,
        -0.05000000074505806,
        -4
      ],
      "type": "VEC3"
    },
    {
      "bufferView": 50,
      "componentType": 5126,
      "count": 24,
      "type": "VEC3"
    },
    {
      "bufferView": 51,
      "componentType": 5126,
      "count": 24,
      "type": "VEC2"
    },
    {
      "bufferView": 52,
      "componentType": 5126,
      "count": 24,
      "type": "VEC4"
    },
    {
      "bufferView": 53,
      "componentType": 5123,
      "count": 36,
      "type": "SCALAR"
    },
    {
      "bufferView": 54,
      "componentType": 5126,
      "count": 24,
      "max": [
        6,
        0.05000000074505806,
        4
      ],
      "min": [
        -6,
        -0.05000000074505806,
        -4
      ],
      "type": "VEC3"
    },
    {
      "bufferView": 55,
      "componentType": 5126,
      "count": 24,
      "type": "VEC3"
    },
    {
      "bufferView": 56,
      "componentType": 5126,
      "count": 24,
      "type": "VEC2"
    },
    {
      "bufferView": 57,
      "componentType": 5126,
      "count": 24,
      "type": "VEC4"
    },
    {
      "bufferView": 58,
      "componentType": 5126,
      "count": 24,
      "max": [
        6,
        0.05000000074505806,
        4
      ],
      "min": [
        -6,
        -0.05000000074505806,
        -4
      ],
      "type": "VEC3"
    },
    {
      "bufferView": 59,
      "componentType": 5126,
      "count": 24,
      "type": "VEC3"
    },
    {
      "bufferView": 60,
      "componentType": 5126,
      "count": 24,
      "type": "VEC2"
    },
    {
      "bufferView": 61,
      "componentType": 5126,
      "count": 24,
      "type": "VEC4"
    },
    {
      "bufferView": 62,
      "componentType": 5126,
      "count": 24,
      "max": [
        0.5,
        0.5,
        0.5
      ],
      "min": [
        -0.5,
        -0.5,
        -0.5
      ],
      "type": "VEC3"
    },
    {
      "bufferView": 63,
      "componentType": 5126,
      "count": 24,
      "type": "VEC3"
    },
    {
      "bufferView": 64,
      "componentType": 5126,
      "count": 24,
      "type": "VEC2"
    },
    {
      "bufferView": 65,
      "componentType": 5126,
      "count": 24,
      "type": "VEC4"
    },
    {
      "bufferView": 66,
      "componentType": 5126,
      "count": 2143,
      "max": [
        0.7999998927116394,
        0.800000011920929,
        0.7999997735023499
      ],
      "min": [
        -0.7999995946884155,
        -0.800000011920929,
        -0.800000011920929
      ],
      "type": "VEC3"
    },
    {
      "bufferView": 67,
      "componentType": 5126,
      "count": 2143,
      "type": "VEC3"
    },
    {
      "bufferView": 68,
      "componentType": 5126,
      "count": 2143,
      "type": "VEC2"
    },
    {
      "bufferView": 69,
      "componentType": 5126,
      "count": 2143,
      "type": "VEC4"
    },
    {
      "bufferView": 70,
      "componentType": 5123,
      "count": 11904,
      "type": "SCALAR"
    },
    {
      "bufferView": 71,
      "componentType": 5126,
      "count": 2143,
      "max": [
        0.7999998927116394,
        0.800000011920929,
        0.7999997735023499
      ],
      "min": [
        -0.7999995946884155,
        -0.800000011920929,
        -0.800000011920929
      ],
      "type": "VEC3"
    },
    {
      "bufferView": 72,
      "componentType": 5126,
      "count": 2143,
      "type": "VEC3"
    },
    {
      "bufferView": 73,
      "componentType": 5126,
      "count": 2143,
      "type": "VEC2"
    },
    {
      "bufferView": 74,
      "componentType": 5126,
      "count": 2143,
      "type": "VEC4"
    },
    {
      "bufferView": 75,
      "componentType": 5123,
      "count": 11904,
      "type": "SCALAR"
    },
    {
      "bufferView": 76,
      "componentType": 5126,
      "count": 2143,
      "max": [
        0.7999998927116394,
        0.800000011920929,
        0.7999997735023499
      ],
      "min": [
        -0.7999995946884155,
        -0.800000011920929,
        -0.800000011920929
      ],
      "type": "VEC3"
    },
    {
      "bufferView": 77,
      "componentType": 5126,
      "count": 2143,
      "type": "VEC3"
    },
    {
      "bufferView": 78,
      "componentType": 5126,
      "count": 2143,
      "type": "VEC2"
    },
    {
      "bufferView": 79,
      "componentType": 5126,
      "count": 2143,
      "type": "VEC4"
    },
    {
      "bufferView": 80,
      "componentType": 5123,
      "count": 11904,
      "type": "SCALAR"
    },
    {
      "bufferView": 81,
      "componentType": 5126,
      "count": 2143,
      "max": [
        0.7999998927116394,
        0.800000011920929,
        0.7999997735023499
      ],
      "min": [
        -0.7999995946884155,
        -0.800000011920929,
        -0.800000011920929
      ],
      "type": "VEC3"
    },
    {
      "bufferView": 82,
      "componentType": 5126,
      "count": 2143,
      "type": "VEC3"
    },
    {
      "bufferView": 83,
      "componentType": 5126,
      "count": 2143,
      "type": "VEC2"
    },
    {
      "bufferView": 84,
      "componentType": 5126,
      "count": 2143,
      "type": "VEC4"
    },
    {
      "bufferView": 85,
      "componentType": 5123,
      "count": 11904,
      "type": "SCALAR"
    },
    {
      "bufferView": 86,
      "componentType": 5126,
      "count": 2143,
      "max": [
        0.7999998927116394,
        0.800000011920929,
        0.7999997735023499
      ],
      "min": [
        -0.7999995946884155,
        -0.800000011920929,
        -0.800000011920929
      ],
      "type": "VEC3"
    },
    {
      "bufferView": 87,
      "componentType": 5126,
      "count": 2143,
      "type": "VEC3"
    },
    {
      "bufferView": 88,
      "componentType": 5126,
      "count": 2143,
      "type": "VEC2"
    },
    {
      "bufferView": 89,
      "componentType": 5126,
      "count": 2143,
      "type": "VEC4"
    },
    {
      "bufferView": 90,
      "componentType": 5123,
      "count": 11904,
      "type": "SCALAR"
    },
    {
      "bufferView": 91,
      "componentType": 5126,
      "count": 2143,
      "max": [
        0.7999998927116394,
        0.800000011920929,
        0.7999997735023499
      ],
      "min": [
        -0.7999995946884155,
        -0.800000011920929,
        -0.800000011920929
      ],
      "type": "VEC3"
    },
    {
      "bufferView": 92,
      "componentType": 5126,
      "count": 2143,
      "type": "VEC3"
    },
    {
      "bufferView": 93,
      "componentType": 5126,
      "count": 2143,
      "type": "VEC2"
    },
    {
      "bufferView": 94,
      "componentType": 5126,
      "count": 2143,
      "type": "VEC4"
    },
    {
      "bufferView": 95,
      "componentType": 5123,
      "count": 11904,
      "type": "SCALAR"
    },
    {
      "bufferView": 96,
      "componentType": 5126,
      "count": 2143,
      "max": [
        0.7999998927116394,
        0.800000011920929,
        0.7999997735023499
      ],
      "min": [
        -0.7999995946884155,
        -0.800000011920929,
        -0.800000011920929
      ],
      "type": "VEC3"
    },
    {
      "bufferView": 97,
      "componentType": 5126,
      "count": 2143,
      "type": "VEC3"
    },
    {
      "bufferView": 98,
      "componentType": 5126,
      "count": 2143,
      "type": "VEC2"
    },
    {
      "bufferView": 99,
      "componentType": 5126,
      "count": 2143,
      "type": "VEC4"
    },
    {
      "bufferView": 100,
      "componentType": 5123,
      "count": 11904,
      "type": "SCALAR"
    },
    {
      "bufferView": 101,
      "componentType": 5126,
      "count": 2143,
      "max": [
        0.7999998927116394,
        0.800000011920929,
        0.7999997735023499
      ],
      "min": [
        -0.7999995946884155,
        -0.800000011920929,
        -0.800000011920929
      ],
      "type": "VEC3"
    },
    {
      "bufferView": 102,
      "componentType": 5126,
      "count": 2143,
      "type": "VEC3"
    },
    {
      "bufferView": 103,
      "componentType": 5126,
      "count": 2143,
      "type": "VEC2"
    },
    {
      "bufferView": 104,
      "componentType": 5126,
      "count": 2143,
      "type": "VEC4"
    },
    {
      "bufferView": 105,
      "componentType": 5123,
      "count": 11904,
      "type": "SCALAR"
    },
    {
      "bufferView": 106,
      "componentType": 5126,
      "count": 2143,
      "max": [
        0.7999998927116394,
        0.800000011920929,
        0.7999997735023499
      ],
      "min": [
        -0.7999995946884155,
        -0.800000011920929,
        -0.800000011920929
      ],
      "type": "VEC3"
    },
    {
      "bufferView": 107,
      "componentType": 5126,
      "count": 2143,
      "type": "VEC3"
    },
    {
      "bufferView": 108,
      "componentType": 5126,
      "count": 2143,
      "type": "VEC2"
    },
    {
      "bufferView": 109,
      "componentType": 5126,
      "count": 2143,
      "type": "VEC4"
    },
    {
      "bufferView": 110,
      "componentType": 5123,
      "count": 11904,
      "type": "SCALAR"
    },
    {
      "bufferView": 111,
      "componentType": 5126,
      "count": 2143,
      "max": [
        0.7999998927116394,
        0.800000011920929,
        0.7999997735023499
      ],
      "min": [
        -0.7999995946884155,
        -0.800000011920929,
        -0.800000011920929
      ],
      "type": "VEC3"
    },
    {
      "bufferView": 112,
      "componentType": 5126,
      "count": 2143,
      "type": "VEC3"
    },
    {
      "bufferView": 113,
      "componentType": 5126,
      "count": 2143,
      "type": "VEC2"
    },
    {
      "bufferView": 114,
      "componentType": 5126,
      "count": 2143,
      "type": "VEC4"
    },
    {
      "bufferView": 115,
      "componentType": 5123,
      "count": 11904,
      "type": "SCALAR"
    },
    {
      "bufferView": 116,
      "componentType": 5126,
      "count": 2143,
      "max": [
        0.7999998927116394,
        0.800000011920929,
        0.7999997735023499
      ],
      "min": [
        -0.7999995946884155,
        -0.800000011920929,
        -0.800000011920929
      ],
      "type": "VEC3"
    },
    {
      "bufferView": 117,
      "componentType": 5126,
      "count": 2143,
      "type": "VEC3"
    },
    {
      "bufferView": 118,
      "componentType": 5126,
      "count": 2143,
      "type": "VEC2"
    },
    {
      "bufferView": 119,
      "componentType": 5126,
      "count": 2143,
      "type": "VEC4"
    },
    {
      "bufferView": 120,
      "componentType": 5123,
      "count": 11904,
      "type": "SCALAR"
    },
    {
      "bufferView": 121,
      "componentType": 5126,
      "count": 2143,
      "max": [
        0.7999998927116394,
        0.800000011920929,
        0.7999997735023499
      ],
      "min": [
        -0.7999995946884155,
        -0.800000011920929,
        -0.800000011920929
      ],
      "type": "VEC3"
    },
    {
      "bufferView": 122,
      "componentType": 5126,
      "count": 2143,
      "type": "VEC3"
    },
    {
      "bufferView": 123,
      "componentType": 5126,
      "count": 2143,
      "type": "VEC2"
    },
    {
      "bufferView": 124,
      "componentType": 5126,
      "count": 2143,
      "type": "VEC4"
    },
    {
      "bufferView": 125,
      "componentType": 5123,
      "count": 11904,
      "type": "SCALAR"
    },
    {
      "bufferView": 126,
      "componentType": 5126,
      "count": 24,
      "max": [
        8,
        0.05000000074505806,
        4
      ],
      "min": [
        -8,
        -0.05000000074505806,
        -4
      ],
      "type": "VEC3"
    },
    {
      "bufferView": 127,
      "componentType": 5126,
      "count": 24,
      "type": "VEC3"
    },
    {
      "bufferView": 128,
      "componentType": 5126,
      "count": 24,
      "type": "VEC2"
    },
    {
      "bufferView": 129,
      "componentType": 5126,
      "count": 24,
      "type": "VEC4"
    },
    {
      "bufferView": 130,
      "componentType": 5126,
      "count": 2143,
      "max": [
        0.7999998927116394,
        0.800000011920929,
        0.7999997735023499
      ],
      "min": [
        -0.7999995946884155,
        -0.800000011920929,
        -0.800000011920929
      ],
      "type": "VEC3"
    },
    {
      "bufferView": 131,
      "componentType": 5126,
      "count": 2143,
      "type": "VEC3"
    },
    {
      "bufferView": 132,
      "componentType": 5126,
      "count": 2143,
      "type": "VEC2"
    },
    {
      "bufferView": 133,
      "componentType": 5126,
      "count": 2143,
      "type": "VEC4"
    },
    {
      "bufferView": 134,
      "componentType": 5123,
      "count": 11904,
      "type": "SCALAR"
    },
    {
      "bufferView": 135,
      "componentType": 5126,
      "count": 2143,
      "max": [
        0.7999998927116394,
        0.800000011920929,
        0.7999997735023499
      ],
      "min": [
        -0.7999995946884155,
        -0.800000011920929,
        -0.800000011920929
      ],
      "type": "VEC3"
    },
    {
      "bufferView": 136,
      "componentType": 5126,
      "count": 2143,
      "type": "VEC3"
    },
    {
      "bufferView": 137,
      "componentType": 5126,
      "count": 2143,
      "type": "VEC2"
    },
    {
      "bufferView": 138,
      "componentType": 5126,
      "count": 2143,
      "type": "VEC4"
    },
    {
      "bufferView": 139,
      "componentType": 5123,
      "count": 11904,
      "type": "SCALAR"
    },
    {
      "bufferView": 140,
      "componentType": 5126,
      "count": 2143,
      "max": [
        0.7999998927116394,
        0.800000011920929,
        0.7999997735023499
      ],
      "min": [
        -0.7999995946884155,
        -0.800000011920929,
        -0.800000011920929
      ],
      "type": "VEC3"
    },
    {
      "bufferView": 141,
      "componentType": 5126,
      "count": 2143,
      "type": "VEC3"
    },
    {
      "bufferView": 142,
      "componentType": 5126,
      "count": 2143,
      "type": "VEC2"
    },
    {
      "bufferView": 143,
      "componentType": 5126,
      "count": 2143,
      "type": "VEC4"
    },
    {
      "bufferView": 144,
      "componentType": 5123,
      "count": 11904,
      "type": "SCALAR"
    },
    {
      "bufferView": 145,
      "componentType": 5126,
      "count": 2143,
      "max": [
        0.7999998927116394,
        0.800000011920929,
        0.7999997735023499
      ],
      "min": [
        -0.7999995946884155,
        -0.800000011920929,
        -0.800000011920929
      ],
      "type": "VEC3"
    },
    {
      "bufferView": 146,
      "componentType": 5126,
      "count": 2143,
      "type": "VEC3"
    },
    {
      "bufferView": 147,
      "componentType": 5126,
      "count": 2143,
      "type": "VEC2"
    },
    {
      "bufferView": 148,
      "componentType": 5126,
      "count": 2143,
      "type": "VEC4"
    },
    {
      "bufferView": 149,
      "componentType": 5123,
      "count": 11904,
      "type": "SCALAR"
    },
    {
      "bufferView": 150,
      "componentType": 5126,
      "count": 2143,
      "max": [
        0.7999998927116394,
        0.800000011920929,
        0.7999997735023499
      ],
      "min": [
        -0.7999995946884155,
        -0.800000011920929,
        -0.800000011920929
      ],
      "type": "VEC3"
    },
    {
      "bufferView": 151,
      "componentType": 5126,
      "count": 2143,
      "type": "VEC3"
    },
    {
      "bufferView": 152,
      "componentType": 5126,
      "count": 2143,
      "type": "VEC2"
    },
    {
      "bufferView": 153,
      "componentType": 5126,
      "count": 2143,
      "type": "VEC4"
    },
    {
      "bufferView": 154,
      "componentType": 5123,
      "count": 11904,
      "type": "SCALAR"
    },
    {
      "bufferView": 155,
      "componentType": 5126,
      "count": 24,
      "max": [
        5.5,
        0.05000000074505806,
        4
      ],
      "min": [
        -5.5,
        -0.05000000074505806,
        -4
      ],
      "type": "VEC3"
    },
    {
      "bufferView": 156,
      "componentType": 5126,
      "count": 24,
      "type": "VEC3"
    },
    {
      "bufferView": 157,
      "componentType": 5126,
      "count": 24,
      "type": "VEC2"
    },
    {
      "bufferView": 158,
      "componentType": 5126,
      "count": 24,
      "type": "VEC4"
    },
    {
      "bufferView": 159,
      "componentType": 5126,
      "count": 2143,
      "max": [
        0.7999998927116394,
        0.800000011920929,
        0.7999997735023499
      ],
      "min": [
        -0.7999995946884155,
        -0.800000011920929,
        -0.800000011920929
      ],
      "type": "VEC3"
    },
    {
      "bufferView": 160,
      "componentType": 5126,
      "count": 2143,
      "type": "VEC3"
    },
    {
      "bufferView": 161,
      "componentType": 5126,
      "count": 2143,
      "type": "VEC2"
    },
    {
      "bufferView": 162,
      "componentType": 5126,
      "count": 2143,
      "type": "VEC4"
    },
    {
      "bufferView": 163,
      "componentType": 5123,
      "count": 11904,
      "type": "SCALAR"
    },
    {
      "bufferView": 164,
      "componentType": 5126,
      "count": 2143,
      "max": [
        0.7999998927116394,
        0.800000011920929,
        0.7999997735023499
      ],
      "min": [
        -0.7999995946884155,
        -0.800000011920929,
        -0.800000011920929
      ],
      "type": "VEC3"
    },
    {
      "bufferView": 165,
      "componentType": 5126,
      "count": 2143,
      "type": "VEC3"
    },
    {
      "bufferView": 166,
      "componentType": 5126,
      "count": 2143,
      "type": "VEC2"
    },
    {
      "bufferView": 167,
      "componentType": 5126,
      "count": 2143,
      "type": "VEC4"
    },
    {
      "bufferView": 168,
      "componentType": 5123,
      "count": 11904,
      "type": "SCALAR"
    },
    {
      "bufferView": 169,
      "componentType": 5126,
      "count": 2143,
      "max": [
        0.7999998927116394,
        0.800000011920929,
        0.7999997735023499
      ],
      "min": [
        -0.7999995946884155,
        -0.800000011920929,
        -0.800000011920929
      ],
      "type": "VEC3"
    },
    {
      "bufferView": 170,
      "componentType": 5126,
      "count": 2143,
      "type": "VEC3"
    },
    {
      "bufferView": 171,
      "componentType": 5126,
      "count": 2143,
      "type": "VEC2"
    },
    {
      "bufferView": 172,
      "componentType": 5126,
      "count": 2143,
      "type": "VEC4"
    },
    {
      "bufferView": 173,
      "componentType": 5123,
      "count": 11904,
      "type": "SCALAR"
    },
    {
      "bufferView": 174,
      "componentType": 5126,
      "count": 2143,
      "max": [
        0.7999998927116394,
        0.800000011920929,
        0.7999997735023499
      ],
      "min": [
        -0.7999995946884155,
        -0.800000011920929,
        -0.800000011920929
      ],
      "type": "VEC3"
    },
    {
      "bufferView": 175,
      "componentType": 5126,
      "count": 2143,
      "type": "VEC3"
    },
    {
      "bufferView": 176,
      "componentType": 5126,
      "count": 2143,
      "type": "VEC2"
    },
    {
      "bufferView": 177,
      "componentType": 5126,
      "count": 2143,
      "type": "VEC4"
    },
    {
      "bufferView": 178,
      "componentType": 5123,
      "count": 11904,
      "type": "SCALAR"
    }
  ],
  "bufferViews": [
    {
      "buffer": 0,
      "byteLength": 48,
      "byteOffset": 0,
      "target": 34962
    },
    {
      "buffer": 0,
      "byteLength": 48,
      "byteOffset": 48,
      "target": 34962
    },
    {
      "buffer": 0,
      "byteLength": 32,
      "byteOffset": 96,
      "target": 34962
    },
    {
      "buffer": 0,
      "byteLength": 64,
      "byteOffset": 128,
      "target": 34962
    },
    {
      "buffer": 0,
      "byteLength": 12,
      "byteOffset": 192,
      "target": 34963
    },
    {
      "buffer": 0,
      "byteLength": 48,
      "byteOffset": 204,
      "target": 34962
    },
    {
      "buffer": 0,
      "byteLength": 48,
      "byteOffset": 252,
      "target": 34962
    },
    {
      "buffer": 0,
      "byteLength": 32,
      "byteOffset": 300,
      "target": 34962
    },
    {
      "buffer": 0,
      "byteLength": 64,
      "byteOffset": 332,
      "target": 34962
    },
    {
      "buffer": 0,
      "byteLength": 48,
      "byteOffset": 396,
      "target": 34962
    },
    {
      "buffer": 0,
      "byteLength": 48,
      "byteOffset": 444,
      "target": 34962
    },
    {
      "buffer": 0,
      "byteLength": 32,
      "byteOffset": 492,
      "target": 34962
    },
    {
      "buffer": 0,
      "byteLength": 64,
      "byteOffset": 524,
      "target": 34962
    },
    {
      "buffer": 0,
      "byteLength": 48,
      "byteOffset": 588,
      "target": 34962
    },
    {
      "buffer": 0,
      "byteLength": 48,
      "byteOffset": 636,
      "target": 34962
    },
    {
      "buffer": 0,
      "byteLength": 32,
      "byteOffset": 684,
      "target": 34962
    },
    {
      "buffer": 0,
      "byteLength": 64,
      "byteOffset": 716,
      "target": 34962
    },
    {
      "buffer": 0,
      "byteLength": 25716,
      "byteOffset": 780,
      "target": 34962
    },
    {
      "buffer": 0,
      "byteLength": 25716,
      "byteOffset": 26496,
      "target": 34962
    },
    {
      "buffer": 0,
      "byteLength": 17144,
      "byteOffset": 52212,
      "target": 34962
    },
    {
      "buffer": 0,
      "byteLength": 34288,
      "byteOffset": 69356,
      "target": 34962
    },
    {
      "buffer": 0,
      "byteLength": 23808,
      "byteOffset": 103644,
      "target": 34963
    },
    {
      "buffer": 0,
      "byteLength": 25716,
      "byteOffset": 127452,
      "target": 34962
    },
    {
      "buffer": 0,
      "byteLength": 25716,
      "byteOffset": 153168,
      "target": 34962
    },
    {
      "buffer": 0,
      "byteLength": 17144,
      "byteOffset": 178884,
      "target": 34962
    },
    {
      "buffer": 0,
      "byteLength": 34288,
      "byteOffset": 196028,
      "target": 34962
    },
    {
      "buffer": 0,
      "byteLength": 23808,
      "byteOffset": 230316,
      "target": 34963
    },
    {
      "buffer": 0,
      "byteLength": 25716,
      "byteOffset": 254124,
      "target": 34962
    },
    {
      "buffer": 0,
      "byteLength": 25716,
      "byteOffset": 279840,
      "target": 34962
    },
    {
      "buffer": 0,
      "byteLength": 17144,
      "byteOffset": 305556,
      "target": 34962
    },
    {
      "buffer": 0,
      "byteLength": 34288,
      "byteOffset": 322700,
      "target": 34962
    },
    {
      "buffer": 0,
      "byteLength": 23808,
      "byteOffset": 356988,
      "target": 34963
    },
    {
      "buffer": 0,
      "byteLength": 25716,
      "byteOffset": 380796,
      "target": 34962
    },
    {
      "buffer": 0,
      "byteLength": 25716,
      "byteOffset": 406512,
      "target": 34962
    },
    {
      "buffer": 0,
      "byteLength": 17144,
      "byteOffset": 432228,
      "target": 34962
    },
    {
      "buffer": 0,
      "byteLength": 34288,
      "byteOffset": 449372,
      "target": 34962
    },
    {
      "buffer": 0,
      "byteLength": 23808,
      "byteOffset": 483660,
      "target": 34963
    },
    {
      "buffer": 0,
      "byteLength": 48,
      "byteOffset": 507468,
      "target": 34962
    },
    {
      "buffer": 0,
      "byteLength": 48,
      "byteOffset": 507516,
      "target": 34962
    },
    {
      "buffer": 0,
      "byteLength": 32,
      "byteOffset": 507564,
      "target": 34962
    },
    {
      "buffer": 0,
      "byteLength": 64,
      "byteOffset": 507596,
      "target": 34962
    },
    {
      "buffer": 0,
      "byteLength": 48,
      "byteOffset": 507660,
      "target": 34962
    },
    {
      "buffer": 0,
      "byteLength": 48,
      "byteOffset": 507708,
      "target": 34962
    },
    {
      "buffer": 0,
      "byteLength": 32,
      "byteOffset": 507756,
      "target": 34962
    },
    {
      "buffer": 0,
      "byteLength": 64,
      "byteOffset": 507788,
      "target": 34962
    },
    {
      "buffer": 0,
      "byteLength": 48,
      "byteOffset": 507852,
      "target": 34962
    },
    {
      "buffer": 0,
      "byteLength": 48,
      "byteOffset": 507900,
      "target": 34962
    },
    {
      "buffer": 0,
      "byteLength": 32,
      "byteOffset": 507948,
      "target": 34962
    },
    {
      "buffer": 0,
      "byteLength": 64,
      "byteOffset": 507980,
      "target": 34962
    },
    {
      "buffer": 0,
      "byteLength": 288,
      "byteOffset": 508044,
      "target": 34962
    },
    {
      "buffer": 0,
      "byteLength": 288,
      "byteOffset": 508332,
      "target": 34962
    },
    {
      "buffer": 0,
      "byteLength": 192,
      "byteOffset": 508620,
      "target": 34962
    },
    {
      "buffer": 0,
      "byteLength": 384,
      "byteOffset": 508812,
      "target": 34962
    },
    {
      "buffer": 0,
      "byteLength": 72,
      "byteOffset": 509196,
      "target": 34963
    },
    {
      "buffer": 0,
      "byteLength": 288,
      "byteOffset": 509268,
      "target": 34962
    },
    {
      "buffer": 0,
      "byteLength": 288,
      "byteOffset": 509556,
      "target": 34962
    },
    {
      "buffer": 0,
      "byteLength": 192,
      "byteOffset": 509844,
      "target": 34962
    },
    {
      "buffer": 0,
      "byteLength": 384,
      "byteOffset": 510036,
      "target": 34962
    },
    {
      "buffer": 0,
      "byteLength": 288,
      "byteOffset": 510420,
      "target": 34962
    },
    {
      "buffer": 0,
      "byteLength": 288,
      "byteOffset": 510708,
      "target": 34962
    },
    {
      "buffer": 0,
      "byteLength": 192,
      "byteOffset": 510996,
      "target": 34962
    },
    {
      "buffer": 0,
      "byteLength": 384,
      "byteOffset": 511188,
      "target": 34962
    },
    {
      "buffer": 0,
      "byteLength": 288,
      "byteOffset": 511572,
      "target": 34962
    },
    {
      "buffer": 0,
      "byteLength": 288,
      "byteOffset": 511860,
      "target": 34962
    },
    {
      "buffer": 0,
      "byteLength": 192,
      "byteOffset": 512148,
      "target": 34962
    },
    {
      "buffer": 0,
      "byteLength": 384,
      "byteOffset": 512340,
      "target": 34962
    },
    {
      "buffer": 0,
      "byteLength": 25716,
      "byteOffset": 512724,
      "target": 34962
    },
    {
      "buffer": 0,
      "byteLength": 25716,
      "byteOffset": 538440,
      "target": 34962
    },
    {
      "buffer": 0,
      "byteLength": 17144,
      "byteOffset": 564156,
      "target": 34962
    },
    {
      "buffer": 0,
      "byteLength": 34288,
      "byteOffset": 581300,
      "target": 34962
    },
    {
      "buffer": 0,
      "byteLength": 23808,
      "byteOffset": 615588,
      "target": 34963
    },
    {
      "buffer": 0,
      "byteLength": 25716,
      "byteOffset": 639396,
      "target": 34962
    },
    {
      "buffer": 0,
      "byteLength": 25716,
      "byteOffset": 665112,
      "target": 34962
    },
    {
      "buffer": 0,
      "byteLength": 17144,
      "byteOffset": 690828,
      "target": 34962
    },
    {
      "buffer": 0,
      "byteLength": 34288,
      "byteOffset": 707972,
      "target": 34962
    },
    {
      "buffer": 0,
      "byteLength": 23808,
      "byteOffset": 742260,
      "target": 34963
    },
    {
      "buffer": 0,
      "byteLength": 25716,
      "byteOffset": 766068,
      "target": 34962
    },
    {
      "buffer": 0,
      "byteLength": 25716,
      "byteOffset": 791784,
      "target": 34962
    },
    {
      "buffer": 0,
      "byteLength": 17144,
      "byteOffset": 817500,
      "target": 34962
    },
    {
      "buffer": 0,
      "byteLength": 34288,
      "byteOffset": 834644,
      "target": 34962
    },
    {
      "buffer": 0,
      "byteLength": 23808,
      "byteOffset": 868932,
      "target": 34963
    },
    {
      "buffer": 0,
      "byteLength": 25716,
      "byteOffset": 892740,
      "target": 34962
    },
    {
      "buffer": 0,
      "byteLength": 25716,
      "byteOffset": 918456,
      "target": 34962
    },
    {
      "buffer": 0,
      "byteLength": 17144,
      "byteOffset": 944172,
      "target": 34962
    },
    {
      "buffer": 0,
      "byteLength": 34288,
      "byteOffset": 961316,
      "target": 34962
    },
    {
      "buffer": 0,
      "byteLength": 23808,
      "byteOffset": 995604,
      "target": 34963
    },
    {
      "buffer": 0,
      "byteLength": 25716,
      "byteOffset": 1019412,
      "target": 34962
    },
    {
      "buffer": 0,
      "byteLength": 25716,
      "byteOffset": 1045128,
      "target": 34962
    },
    {
      "buffer": 0,
      "byteLength": 17144,
      "byteOffset": 1070844,
      "target": 34962
    },
    {
      "buffer": 0,
      "byteLength": 34288,
      "byteOffset": 1087988,
      "target": 34962
    },
    {
      "buffer": 0,
      "byteLength": 23808,
      "byteOffset": 1122276,
      "target": 34963
    },
    {
      "buffer": 0,
      "byteLength": 25716,
      "byteOffset": 1146084,
      "target": 34962
    },
    {
      "buffer": 0,
      "byteLength": 25716,
      "byteOffset": 1171800,
      "target": 34962
    },
    {
      "buffer": 0,
      "byteLength": 17144,
      "byteOffset": 1197516,
      "target": 34962
    },
    {
      "buffer": 0,
      "byteLength": 34288,
      "byteOffset": 1214660,
      "target": 34962
    },
    {
      "buffer": 0,
      "byteLength": 23808,
      "byteOffset": 1248948,
      "target": 34963
    },
    {
      "buffer": 0,
      "byteLength": 25716,
      "byteOffset": 1272756,
      "target": 34962
    },
    {
      "buffer": 0,
      "byteLength": 25716,
      "byteOffset": 1298472,
      "target": 34962
    },
    {
      "buffer": 0,
      "byteLength": 17144,
      "byteOffset": 1324188,
      "target": 34962
    },
    {
      "buffer": 0,
      "byteLength": 34288,
      "byteOffset": 1341332,
      "target": 34962
    },
    {
      "buffer": 0,
      "byteLength": 23808,
      "byteOffset": 1375620,
      "target": 34963
    },
    {
      "buffer": 0,
      "byteLength": 25716,
      "byteOffset": 1399428,
      "target": 34962
    },
    {
      "buffer": 0,
      "byteLength": 25716,
      "byteOffset": 1425144,
      "target": 34962
    },
    {
      "buffer": 0,
      "byteLength": 17144,
      "byteOffset": 1450860,
      "target": 34962
    },
    {
      "buffer": 0,
      "byteLength": 34288,
      "byteOffset": 1468004,
      "target": 34962
    },
    {
      "buffer": 0,
      "byteLength": 23808,
      "byteOffset": 1502292,
      "target": 34963
    },
    {
      "buffer": 0,
      "byteLength": 25716,
      "byteOffset": 1526100,
      "target": 34962
    },
    {
      "buffer": 0,
      "byteLength": 25716,
      "byteOffset": 1551816,
      "target": 34962
    },
    {
      "buffer": 0,
      "byteLength": 17144,
      "byteOffset": 1577532,
      "target": 34962
    },
    {
      "buffer": 0,
      "byteLength": 34288,
      "byteOffset": 1594676,
      "target": 34962
    },
    {
      "buffer": 0,
      "byteLength": 23808,
      "byteOffset": 1628964,
      "target": 34963
    },
    {
      "buffer": 0,
      "byteLength": 25716,
      "byteOffset": 1652772,
      "target": 34962
    },
    {
      "buffer": 0,
      "byteLength": 25716,
      "byteOffset": 1678488,
      "target": 34962
    },
    {
      "buffer": 0,
      "byteLength": 17144,
      "byteOffset": 1704204,
      "target": 34962
    },
    {
      "buffer": 0,
      "byteLength": 34288,
      "byteOffset": 1721348,
      "target": 34962
    },
    {
      "buffer": 0,
      "byteLength": 23808,
      "byteOffset": 1755636,
      "target": 34963
    },
    {
      "buffer": 0,
      "byteLength": 25716,
      "byteOffset": 1779444,
      "target": 34962
    },
    {
      "buffer": 0,
      "byteLength": 25716,
      "byteOffset": 1805160,
      "target": 34962
    },
    {
      "buffer": 0,
      "byteLength": 17144,
      "byteOffset": 1830876,
      "target": 34962
    },
    {
      "buffer": 0,
      "byteLength": 34288,
      "byteOffset": 1848020,
      "target": 34962
    },
    {
      "buffer": 0,
      "byteLength": 23808,
      "byteOffset": 1882308,
      "target": 34963
    },
    {
      "buffer": 0,
      "byteLength": 25716,
      "byteOffset": 1906116,
      "target": 34962
    },
    {
      "buffer": 0,
      "byteLength": 25716,
      "byteOffset": 1931832,
      "target": 34962
    },
    {
      "buffer": 0,
      "byteLength": 17144,
      "byteOffset": 1957548,
      "target": 34962
    },
    {
      "buffer": 0,
      "byteLength": 34288,
      "byteOffset": 1974692,
      "target": 34962
    },
    {
      "buffer": 0,
      "byteLength": 23808,
      "byteOffset": 2008980,
      "target": 34963
    },
    {
      "buffer": 0,
      "byteLength": 288,
      "byteOffset": 2032788,
      "target": 34962
    },
    {
      "buffer": 0,
      "byteLength": 288,
      "byteOffset": 2033076,
      "target": 34962
    },
    {
      "buffer": 0,
      "byteLength": 192,
      "byteOffset": 2033364,
      "target": 34962
    },
    {
      "buffer": 0,
      "byteLength": 384,
      "byteOffset": 2033556,
      "target": 34962
    },
    {
      "buffer": 0,
      "byteLength": 25716,
      "byteOffset": 2033940,
      "target": 34962
    },
    {
      "buffer": 0,
      "byteLength": 25716,
      "byteOffset": 2059656,
      "target": 34962
    },
    {
      "buffer": 0,
      "byteLength": 17144,
      "byteOffset": 2085372,
      "target": 34962
    },
    {
      "buffer": 0,
      "byteLength": 34288,
      "byteOffset": 2102516,
      "target": 34962
    },
    {
      "buffer": 0,
      "byteLength": 23808,
      "byteOffset": 2136804,
      "target": 34963
    },
    {
      "buffer": 0,
      "byteLength": 25716,
      "byteOffset": 2160612,
      "target": 34962
    },
    {
      "buffer": 0,
      "byteLength": 25716,
      "byteOffset": 2186328,
      "target": 34962
    },
    {
      "buffer": 0,
      "byteLength": 17144,
      "byteOffset": 2212044,
      "target": 34962
    },
    {
      "buffer": 0,
      "byteLength": 34288,
      "byteOffset": 2229188,
      "target": 34962
    },
    {
      "buffer": 0,
      "byteLength": 23808,
      "byteOffset": 2263476,
      "target": 34963
    },
    {
      "buffer": 0,
      "byteLength": 25716,
      "byteOffset": 2287284,
      "target": 34962
    },
    {
      "buffer": 0,
      "byteLength": 25716,
      "byteOffset": 2313000,
      "target": 34962
    },
    {
      "buffer": 0,
      "byteLength": 17144,
      "byteOffset": 2338716,
      "target": 34962
    },
    {
      "buffer": 0,
      "byteLength": 34288,
      "byteOffset": 2355860,
      "target": 34962
    },
    {
      "buffer": 0,
      "byteLength": 23808,
      "byteOffset": 2390148,
      "target": 34963
    },
    {
      "buffer": 0,
      "byteLength": 25716,
      "byteOffset": 2413956,
      "target": 34962
    },
    {
      "buffer": 0,
      "byteLength": 25716,
      "byteOffset": 2439672,
      "target": 34962
    },
    {
      "buffer": 0,
      "byteLength": 17144,
      "byteOffset": 2465388,
      "target": 34962
    },
    {
      "buffer": 0,
      "byteLength": 34288,
      "byteOffset": 2482532,
      "target": 34962
    },
    {
      "buffer": 0,
      "byteLength": 23808,
      "byteOffset": 2516820,
      "target": 34963
    },
    {
      "buffer": 0,
      "byteLength": 25716,
      "byteOffset": 2540628,
      "target": 34962
    },
    {
      "buffer": 0,
      "byteLength": 25716,
      "byteOffset": 2566344,
      "target": 34962
    },
    {
      "buffer": 0,
      "byteLength": 17144,
      "byteOffset": 2592060,
      "target": 34962
    },
    {
      "buffer": 0,
      "byteLength": 34288,
      "byteOffset": 2609204,
      "target": 34962
    },
    {
      "buffer": 0,
      "byteLength": 23808,
      "byteOffset": 2643492,
      "target": 34963
    },
    {
      "buffer": 0,
      "byteLength": 288,
      "byteOffset": 2667300,
      "target": 34962
    },
    {
      "buffer": 0,
      "byteLength": 288,
      "byteOffset": 2667588,
      "target": 34962
    },
    {
      "buffer": 0,
      "byteLength": 192,
      "byteOffset": 2667876,
      "target": 34962
    },
    {
      "buffer": 0,
      "byteLength": 384,
      "byteOffset": 2668068,
      "target": 34962
    },
    {
      "buffer": 0,
      "byteLength": 25716,
      "byteOffset": 2668452,
      "target": 34962
    },
    {
      "buffer": 0,
      "byteLength": 25716,
      "byteOffset": 2694168,
      "target": 34962
    },
    {
      "buffer": 0,
      "byteLength": 17144,
      "byteOffset": 2719884,
      "target": 34962
    },
    {
      "buffer": 0,
      "byteLength": 34288,
      "byteOffset": 2737028,
      "target": 34962
    },
    {
      "buffer": 0,
      "byteLength": 23808,
      "byteOffset": 2771316,
      "target": 34963
    },
    {
      "buffer": 0,
      "byteLength": 25716,
      "byteOffset": 2795124,
      "target": 34962
    },
    {
      "buffer": 0,
      "byteLength": 25716,
      "byteOffset": 2820840,
      "target": 34962
    },
    {
      "buffer": 0,
      "byteLength": 17144,
      "byteOffset": 2846556,
      "target": 34962
    },
    {
      "buffer": 0,
      "byteLength": 34288,
      "byteOffset": 2863700,
      "target": 34962
    },
    {
      "buffer": 0,
      "byteLength": 23808,
      "byteOffset": 2897988,
      "target": 34963
    },
    {
      "buffer": 0,
      "byteLength": 25716,
      "byteOffset": 2921796,
      "target": 34962
    },
    {
      "buffer": 0,
      "byteLength": 25716,
      "byteOffset": 2947512,
      "target": 34962
    },
    {
      "buffer": 0,
      "byteLength": 17144,
      "byteOffset": 2973228,
      "target": 34962
    },
    {
      "buffer": 0,
      "byteLength": 34288,
      "byteOffset": 2990372,
      "target": 34962
    },
    {
      "buffer": 0,
      "byteLength": 23808,
      "byteOffset": 3024660,
      "target": 34963
    },
    {
      "buffer": 0,
      "byteLength": 25716,
      "byteOffset": 3048468,
      "target": 34962
    },
    {
      "buffer": 0,
      "byteLength": 25716,
      "byteOffset": 3074184,
      "target": 34962
    },
    {
      "buffer": 0,
      "byteLength": 17144,
      "byteOffset": 3099900,
      "target": 34962
    },
    {
      "buffer": 0,
      "byteLength": 34288,
      "byteOffset": 3117044,
      "target": 34962
    },
    {
      "buffer": 0,
      "byteLength": 23808,
      "byteOffset": 3151332,
      "target": 34963
    }
  ],
  "samplers": [
    {
      "magFilter": 9729,
      "minFilter": 9987
    }
  ],
  "buffers": [
    {
      "byteLength": 3175140,
      "uri": "GGLabLightingContract.bin"
    }
  ]
}
