{
	"asset":{
		"generator":"Khronos glTF Blender I/O v5.1.19",
		"version":"2.0"
	},
	"extensionsUsed":[
		"KHR_lights_punctual"
	],
	"extensionsRequired":[
		"KHR_lights_punctual"
	],
	"extensions":{
		"KHR_lights_punctual":{
			"lights":[
				{
					"color":[
						1,
						1,
						1
					],
					"intensity":683,
					"type":"directional",
					"name":"SUN_TextureContract"
				}
			]
		}
	},
	"scene":0,
	"scenes":[
		{
			"name":"GGLabTextureContract",
			"nodes":[
				0,
				1,
				2,
				3,
				4,
				5,
				6,
				7,
				8,
				9,
				10,
				11,
				12,
				13,
				14,
				15,
				16,
				17,
				18,
				19
			]
		}
	],
	"nodes":[
		{
			"mesh":0,
			"name":"Probe_UV_1x"
		},
		{
			"mesh":1,
			"name":"Probe_UV_2x"
		},
		{
			"mesh":2,
			"name":"Probe_SRGB_Texture"
		},
		{
			"mesh":3,
			"name":"Probe_SRGB_Factor"
		},
		{
			"mesh":4,
			"name":"Probe_Normal"
		},
		{
			"mesh":5,
			"name":"Probe_Normal_Mirrored"
		},
		{
			"mesh":6,
			"name":"Probe_Normal_VertexReference_0"
		},
		{
			"mesh":7,
			"name":"Probe_Normal_VertexReference_1"
		},
		{
			"mesh":8,
			"name":"Probe_Normal_VertexReference_2"
		},
		{
			"mesh":9,
			"name":"Probe_Normal_VertexReference_3"
		},
		{
			"mesh":10,
			"name":"Probe_Normal_Flat"
		},
		{
			"mesh":11,
			"name":"Probe_MR_Raw"
		},
		{
			"mesh":12,
			"name":"Probe_MR_Scaled"
		},
		{
			"mesh":13,
			"name":"Probe_MR_Factor_0"
		},
		{
			"mesh":14,
			"name":"Probe_MR_Factor_1"
		},
		{
			"mesh":15,
			"name":"Probe_MR_Factor_2"
		},
		{
			"mesh":16,
			"name":"Probe_MR_Factor_3"
		},
		{
			"mesh":17,
			"name":"Probe_MR_Decoy"
		},
		{
			"camera":0,
			"name":"CAM_TextureContract",
			"translation":[
				0,
				2.299999952316284,
				12.5
			]
		},
		{
			"extensions":{
				"KHR_lights_punctual":{
					"light":0
				}
			},
			"name":"SUN_TextureContract",
			"rotation":[
				-0.25846871733665466,
				0.20238976180553436,
				0.05547637119889259,
				0.9429500102996826
			]
		}
	],
	"cameras":[
		{
			"name":"CAM_TextureContract",
			"perspective":{
				"aspectRatio":1.7777777777777777,
				"yfov":0.6509917361266737,
				"zfar":50,
				"znear":0.10000000149011612
			},
			"type":"perspective"
		}
	],
	"materials":[
		{
			"name":"PROBE_UV_1x",
			"pbrMetallicRoughness":{
				"baseColorTexture":{
					"index":0
				},
				"metallicFactor":0,
				"roughnessFactor":0.800000011920929
			}
		},
		{
			"name":"PROBE_UV_2x",
			"pbrMetallicRoughness":{
				"baseColorTexture":{
					"index":1
				},
				"metallicFactor":0,
				"roughnessFactor":0.800000011920929
			}
		},
		{
			"name":"PROBE_SRGB_Texture",
			"pbrMetallicRoughness":{
				"baseColorFactor":[
					0.5,
					0.5,
					0.5,
					1
				],
				"baseColorTexture":{
					"index":2
				},
				"metallicFactor":0,
				"roughnessFactor":0.800000011920929
			}
		},
		{
			"name":"PROBE_SRGB_Factor",
			"pbrMetallicRoughness":{
				"baseColorFactor":[
					0.1079302504658699,
					0.1079302504658699,
					0.1079302504658699,
					1
				],
				"metallicFactor":0,
				"roughnessFactor":0.800000011920929
			}
		},
		{
			"name":"PROBE_Normal",
			"normalTexture":{
				"index":3
			},
			"pbrMetallicRoughness":{
				"baseColorFactor":[
					0.5,
					0.5,
					0.5,
					1
				],
				"metallicFactor":0,
				"roughnessFactor":0.800000011920929
			}
		},
		{
			"name":"PROBE_Normal_Mirrored",
			"normalTexture":{
				"index":4
			},
			"pbrMetallicRoughness":{
				"baseColorFactor":[
					0.5,
					0.5,
					0.5,
					1
				],
				"metallicFactor":0,
				"roughnessFactor":0.800000011920929
			}
		},
		{
			"name":"PROBE_Normal_VertexReference",
			"pbrMetallicRoughness":{
				"baseColorFactor":[
					0.5,
					0.5,
					0.5,
					1
				],
				"metallicFactor":0,
				"roughnessFactor":0.800000011920929
			}
		},
		{
			"name":"PROBE_Normal_Flat",
			"pbrMetallicRoughness":{
				"baseColorFactor":[
					0.5,
					0.5,
					0.5,
					1
				],
				"metallicFactor":0,
				"roughnessFactor":0.800000011920929
			}
		},
		{
			"name":"PROBE_MR_Raw",
			"pbrMetallicRoughness":{
				"baseColorFactor":[
					0.5,
					0.5,
					0.5,
					1
				],
				"metallicRoughnessTexture":{
					"index":5
				}
			}
		},
		{
			"name":"PROBE_MR_Scaled",
			"pbrMetallicRoughness":{
				"baseColorFactor":[
					0.5,
					0.5,
					0.5,
					1
				],
				"metallicFactor":0.5,
				"metallicRoughnessTexture":{
					"index":6
				},
				"roughnessFactor":0.5
			}
		},
		{
			"name":"PROBE_MR_Factor_0",
			"pbrMetallicRoughness":{
				"baseColorFactor":[
					0.5,
					0.5,
					0.5,
					1
				],
				"metallicFactor":0,
				"roughnessFactor":0.125490203499794
			}
		},
		{
			"name":"PROBE_MR_Factor_1",
			"pbrMetallicRoughness":{
				"baseColorFactor":[
					0.5,
					0.5,
					0.5,
					1
				],
				"metallicFactor":0,
				"roughnessFactor":0.3764705955982208
			}
		},
		{
			"name":"PROBE_MR_Factor_2",
			"pbrMetallicRoughness":{
				"baseColorFactor":[
					0.5,
					0.5,
					0.5,
					1
				],
				"metallicFactor":0.5,
				"roughnessFactor":0.125490203499794
			}
		},
		{
			"name":"PROBE_MR_Factor_3",
			"pbrMetallicRoughness":{
				"baseColorFactor":[
					0.5,
					0.5,
					0.5,
					1
				],
				"metallicFactor":0.5,
				"roughnessFactor":0.3764705955982208
			}
		},
		{
			"name":"PROBE_MR_Decoy",
			"pbrMetallicRoughness":{
				"baseColorFactor":[
					0.5,
					0.5,
					0.5,
					1
				],
				"metallicFactor":0.5,
				"metallicRoughnessTexture":{
					"index":7
				},
				"roughnessFactor":0.5
			}
		}
	],
	"meshes":[
		{
			"name":"Probe_UV_1x",
			"primitives":[
				{
					"attributes":{
						"POSITION":0,
						"NORMAL":1,
						"TEXCOORD_0":2,
						"TANGENT":3
					},
					"indices":4,
					"material":0
				}
			]
		},
		{
			"name":"Probe_UV_2x",
			"primitives":[
				{
					"attributes":{
						"POSITION":5,
						"NORMAL":6,
						"TEXCOORD_0":7,
						"TANGENT":8
					},
					"indices":4,
					"material":1
				}
			]
		},
		{
			"name":"Probe_SRGB_Texture",
			"primitives":[
				{
					"attributes":{
						"POSITION":9,
						"NORMAL":10,
						"TEXCOORD_0":11,
						"TANGENT":12
					},
					"indices":4,
					"material":2
				}
			]
		},
		{
			"name":"Probe_SRGB_Factor",
			"primitives":[
				{
					"attributes":{
						"POSITION":13,
						"NORMAL":14,
						"TEXCOORD_0":15,
						"TANGENT":16
					},
					"indices":4,
					"material":3
				}
			]
		},
		{
			"name":"Probe_Normal",
			"primitives":[
				{
					"attributes":{
						"POSITION":17,
						"NORMAL":18,
						"TEXCOORD_0":19,
						"TANGENT":20
					},
					"indices":4,
					"material":4
				}
			]
		},
		{
			"name":"Probe_Normal_Mirrored",
			"primitives":[
				{
					"attributes":{
						"POSITION":21,
						"NORMAL":22,
						"TEXCOORD_0":23,
						"TANGENT":24
					},
					"indices":4,
					"material":5
				}
			]
		},
		{
			"name":"Probe_Normal_VertexReference_0",
			"primitives":[
				{
					"attributes":{
						"POSITION":25,
						"NORMAL":26,
						"TEXCOORD_0":27,
						"TANGENT":28
					},
					"indices":4,
					"material":6
				}
			]
		},
		{
			"name":"Probe_Normal_VertexReference_1",
			"primitives":[
				{
					"attributes":{
						"POSITION":29,
						"NORMAL":30,
						"TEXCOORD_0":31,
						"TANGENT":32
					},
					"indices":4,
					"material":6
				}
			]
		},
		{
			"name":"Probe_Normal_VertexReference_2",
			"primitives":[
				{
					"attributes":{
						"POSITION":33,
						"NORMAL":34,
						"TEXCOORD_0":35,
						"TANGENT":36
					},
					"indices":4,
					"material":6
				}
			]
		},
		{
			"name":"Probe_Normal_VertexReference_3",
			"primitives":[
				{
					"attributes":{
						"POSITION":37,
						"NORMAL":38,
						"TEXCOORD_0":39,
						"TANGENT":40
					},
					"indices":4,
					"material":6
				}
			]
		},
		{
			"name":"Probe_Normal_Flat",
			"primitives":[
				{
					"attributes":{
						"POSITION":41,
						"NORMAL":42,
						"TEXCOORD_0":43,
						"TANGENT":44
					},
					"indices":4,
					"material":7
				}
			]
		},
		{
			"name":"Probe_MR_Raw",
			"primitives":[
				{
					"attributes":{
						"POSITION":45,
						"NORMAL":46,
						"TEXCOORD_0":47,
						"TANGENT":48
					},
					"indices":4,
					"material":8
				}
			]
		},
		{
			"name":"Probe_MR_Scaled",
			"primitives":[
				{
					"attributes":{
						"POSITION":49,
						"NORMAL":50,
						"TEXCOORD_0":51,
						"TANGENT":52
					},
					"indices":4,
					"material":9
				}
			]
		},
		{
			"name":"Probe_MR_Factor_0",
			"primitives":[
				{
					"attributes":{
						"POSITION":53,
						"NORMAL":54,
						"TEXCOORD_0":55,
						"TANGENT":56
					},
					"indices":4,
					"material":10
				}
			]
		},
		{
			"name":"Probe_MR_Factor_1",
			"primitives":[
				{
					"attributes":{
						"POSITION":57,
						"NORMAL":58,
						"TEXCOORD_0":59,
						"TANGENT":60
					},
					"indices":4,
					"material":11
				}
			]
		},
		{
			"name":"Probe_MR_Factor_2",
			"primitives":[
				{
					"attributes":{
						"POSITION":61,
						"NORMAL":62,
						"TEXCOORD_0":63,
						"TANGENT":64
					},
					"indices":4,
					"material":12
				}
			]
		},
		{
			"name":"Probe_MR_Factor_3",
			"primitives":[
				{
					"attributes":{
						"POSITION":65,
						"NORMAL":66,
						"TEXCOORD_0":67,
						"TANGENT":68
					},
					"indices":4,
					"material":13
				}
			]
		},
		{
			"name":"Probe_MR_Decoy",
			"primitives":[
				{
					"attributes":{
						"POSITION":69,
						"NORMAL":70,
						"TEXCOORD_0":71,
						"TANGENT":72
					},
					"indices":4,
					"material":14
				}
			]
		}
	],
	"textures":[
		{
			"sampler":0,
			"source":0
		},
		{
			"sampler":0,
			"source":0
		},
		{
			"sampler":0,
			"source":1
		},
		{
			"sampler":0,
			"source":2
		},
		{
			"sampler":0,
			"source":2
		},
		{
			"sampler":0,
			"source":3
		},
		{
			"sampler":0,
			"source":3
		},
		{
			"sampler":0,
			"source":4
		}
	],
	"images":[
		{
			"mimeType":"image/png",
			"name":"Direction",
			"uri":"Textures/Direction.png"
		},
		{
			"mimeType":"image/png",
			"name":"SRGB128",
			"uri":"Textures/SRGB128.png"
		},
		{
			"mimeType":"image/png",
			"name":"NormalDirections",
			"uri":"Textures/NormalDirections.png"
		},
		{
			"mimeType":"image/png",
			"name":"MetallicRoughness",
			"uri":"Textures/MetallicRoughness.png"
		},
		{
			"mimeType":"image/png",
			"name":"MetallicRoughnessDecoy",
			"uri":"Textures/MetallicRoughnessDecoy.png"
		}
	],
	"accessors":[
		{
			"bufferView":0,
			"componentType":5126,
			"count":4,
			"max":[
				-2.4000000953674316,
				5.400000095367432,
				0
			],
			"min":[
				-4.199999809265137,
				3.5999999046325684,
				0
			],
			"type":"VEC3"
		},
		{
			"bufferView":1,
			"componentType":5126,
			"count":4,
			"type":"VEC3"
		},
		{
			"bufferView":2,
			"componentType":5126,
			"count":4,
			"type":"VEC2"
		},
		{
			"bufferView":3,
			"componentType":5126,
			"count":4,
			"type":"VEC4"
		},
		{
			"bufferView":4,
			"componentType":5123,
			"count":6,
			"type":"SCALAR"
		},
		{
			"bufferView":5,
			"componentType":5126,
			"count":4,
			"max":[
				-0.20000000298023224,
				5.400000095367432,
				0
			],
			"min":[
				-2,
				3.5999999046325684,
				0
			],
			"type":"VEC3"
		},
		{
			"bufferView":6,
			"componentType":5126,
			"count":4,
			"type":"VEC3"
		},
		{
			"bufferView":7,
			"componentType":5126,
			"count":4,
			"type":"VEC2"
		},
		{
			"bufferView":8,
			"componentType":5126,
			"count":4,
			"type":"VEC4"
		},
		{
			"bufferView":9,
			"componentType":5126,
			"count":4,
			"max":[
				2,
				5.400000095367432,
				0
			],
			"min":[
				0.20000000298023224,
				3.5999999046325684,
				0
			],
			"type":"VEC3"
		},
		{
			"bufferView":10,
			"componentType":5126,
			"count":4,
			"type":"VEC3"
		},
		{
			"bufferView":11,
			"componentType":5126,
			"count":4,
			"type":"VEC2"
		},
		{
			"bufferView":12,
			"componentType":5126,
			"count":4,
			"type":"VEC4"
		},
		{
			"bufferView":13,
			"componentType":5126,
			"count":4,
			"max":[
				4.199999809265137,
				5.400000095367432,
				0
			],
			"min":[
				2.4000000953674316,
				3.5999999046325684,
				0
			],
			"type":"VEC3"
		},
		{
			"bufferView":14,
			"componentType":5126,
			"count":4,
			"type":"VEC3"
		},
		{
			"bufferView":15,
			"componentType":5126,
			"count":4,
			"type":"VEC2"
		},
		{
			"bufferView":16,
			"componentType":5126,
			"count":4,
			"type":"VEC4"
		},
		{
			"bufferView":17,
			"componentType":5126,
			"count":4,
			"max":[
				-2.4000000953674316,
				3.200000047683716,
				0
			],
			"min":[
				-4.199999809265137,
				1.399999976158142,
				0
			],
			"type":"VEC3"
		},
		{
			"bufferView":18,
			"componentType":5126,
			"count":4,
			"type":"VEC3"
		},
		{
			"bufferView":19,
			"componentType":5126,
			"count":4,
			"type":"VEC2"
		},
		{
			"bufferView":20,
			"componentType":5126,
			"count":4,
			"type":"VEC4"
		},
		{
			"bufferView":21,
			"componentType":5126,
			"count":4,
			"max":[
				-0.20000000298023224,
				3.200000047683716,
				0
			],
			"min":[
				-2,
				1.399999976158142,
				0
			],
			"type":"VEC3"
		},
		{
			"bufferView":22,
			"componentType":5126,
			"count":4,
			"type":"VEC3"
		},
		{
			"bufferView":23,
			"componentType":5126,
			"count":4,
			"type":"VEC2"
		},
		{
			"bufferView":24,
			"componentType":5126,
			"count":4,
			"type":"VEC4"
		},
		{
			"bufferView":25,
			"componentType":5126,
			"count":4,
			"max":[
				1.0700000524520874,
				3.1700000762939453,
				0
			],
			"min":[
				0.23000000417232513,
				2.3299999237060547,
				0
			],
			"type":"VEC3"
		},
		{
			"bufferView":26,
			"componentType":5126,
			"count":4,
			"type":"VEC3"
		},
		{
			"bufferView":27,
			"componentType":5126,
			"count":4,
			"type":"VEC2"
		},
		{
			"bufferView":28,
			"componentType":5126,
			"count":4,
			"type":"VEC4"
		},
		{
			"bufferView":29,
			"componentType":5126,
			"count":4,
			"max":[
				1.9700000286102295,
				3.1700000762939453,
				0
			],
			"min":[
				1.1299999952316284,
				2.3299999237060547,
				0
			],
			"type":"VEC3"
		},
		{
			"bufferView":30,
			"componentType":5126,
			"count":4,
			"type":"VEC3"
		},
		{
			"bufferView":31,
			"componentType":5126,
			"count":4,
			"type":"VEC2"
		},
		{
			"bufferView":32,
			"componentType":5126,
			"count":4,
			"type":"VEC4"
		},
		{
			"bufferView":33,
			"componentType":5126,
			"count":4,
			"max":[
				1.0700000524520874,
				2.2699999809265137,
				0
			],
			"min":[
				0.23000000417232513,
				1.4299999475479126,
				0
			],
			"type":"VEC3"
		},
		{
			"bufferView":34,
			"componentType":5126,
			"count":4,
			"type":"VEC3"
		},
		{
			"bufferView":35,
			"componentType":5126,
			"count":4,
			"type":"VEC2"
		},
		{
			"bufferView":36,
			"componentType":5126,
			"count":4,
			"type":"VEC4"
		},
		{
			"bufferView":37,
			"componentType":5126,
			"count":4,
			"max":[
				1.9700000286102295,
				2.2699999809265137,
				0
			],
			"min":[
				1.1299999952316284,
				1.4299999475479126,
				0
			],
			"type":"VEC3"
		},
		{
			"bufferView":38,
			"componentType":5126,
			"count":4,
			"type":"VEC3"
		},
		{
			"bufferView":39,
			"componentType":5126,
			"count":4,
			"type":"VEC2"
		},
		{
			"bufferView":40,
			"componentType":5126,
			"count":4,
			"type":"VEC4"
		},
		{
			"bufferView":41,
			"componentType":5126,
			"count":4,
			"max":[
				4.199999809265137,
				3.200000047683716,
				0
			],
			"min":[
				2.4000000953674316,
				1.399999976158142,
				0
			],
			"type":"VEC3"
		},
		{
			"bufferView":42,
			"componentType":5126,
			"count":4,
			"type":"VEC3"
		},
		{
			"bufferView":43,
			"componentType":5126,
			"count":4,
			"type":"VEC2"
		},
		{
			"bufferView":44,
			"componentType":5126,
			"count":4,
			"type":"VEC4"
		},
		{
			"bufferView":45,
			"componentType":5126,
			"count":4,
			"max":[
				-2.4000000953674316,
				1,
				0
			],
			"min":[
				-4.199999809265137,
				-0.800000011920929,
				0
			],
			"type":"VEC3"
		},
		{
			"bufferView":46,
			"componentType":5126,
			"count":4,
			"type":"VEC3"
		},
		{
			"bufferView":47,
			"componentType":5126,
			"count":4,
			"type":"VEC2"
		},
		{
			"bufferView":48,
			"componentType":5126,
			"count":4,
			"type":"VEC4"
		},
		{
			"bufferView":49,
			"componentType":5126,
			"count":4,
			"max":[
				-0.20000000298023224,
				1,
				0
			],
			"min":[
				-2,
				-0.800000011920929,
				0
			],
			"type":"VEC3"
		},
		{
			"bufferView":50,
			"componentType":5126,
			"count":4,
			"type":"VEC3"
		},
		{
			"bufferView":51,
			"componentType":5126,
			"count":4,
			"type":"VEC2"
		},
		{
			"bufferView":52,
			"componentType":5126,
			"count":4,
			"type":"VEC4"
		},
		{
			"bufferView":53,
			"componentType":5126,
			"count":4,
			"max":[
				1.0700000524520874,
				0.9700000286102295,
				0
			],
			"min":[
				0.23000000417232513,
				0.12999999523162842,
				0
			],
			"type":"VEC3"
		},
		{
			"bufferView":54,
			"componentType":5126,
			"count":4,
			"type":"VEC3"
		},
		{
			"bufferView":55,
			"componentType":5126,
			"count":4,
			"type":"VEC2"
		},
		{
			"bufferView":56,
			"componentType":5126,
			"count":4,
			"type":"VEC4"
		},
		{
			"bufferView":57,
			"componentType":5126,
			"count":4,
			"max":[
				1.9700000286102295,
				0.9700000286102295,
				0
			],
			"min":[
				1.1299999952316284,
				0.12999999523162842,
				0
			],
			"type":"VEC3"
		},
		{
			"bufferView":58,
			"componentType":5126,
			"count":4,
			"type":"VEC3"
		},
		{
			"bufferView":59,
			"componentType":5126,
			"count":4,
			"type":"VEC2"
		},
		{
			"bufferView":60,
			"componentType":5126,
			"count":4,
			"type":"VEC4"
		},
		{
			"bufferView":61,
			"componentType":5126,
			"count":4,
			"max":[
				1.0700000524520874,
				0.07000000029802322,
				0
			],
			"min":[
				0.23000000417232513,
				-0.7699999809265137,
				0
			],
			"type":"VEC3"
		},
		{
			"bufferView":62,
			"componentType":5126,
			"count":4,
			"type":"VEC3"
		},
		{
			"bufferView":63,
			"componentType":5126,
			"count":4,
			"type":"VEC2"
		},
		{
			"bufferView":64,
			"componentType":5126,
			"count":4,
			"type":"VEC4"
		},
		{
			"bufferView":65,
			"componentType":5126,
			"count":4,
			"max":[
				1.9700000286102295,
				0.07000000029802322,
				0
			],
			"min":[
				1.1299999952316284,
				-0.7699999809265137,
				0
			],
			"type":"VEC3"
		},
		{
			"bufferView":66,
			"componentType":5126,
			"count":4,
			"type":"VEC3"
		},
		{
			"bufferView":67,
			"componentType":5126,
			"count":4,
			"type":"VEC2"
		},
		{
			"bufferView":68,
			"componentType":5126,
			"count":4,
			"type":"VEC4"
		},
		{
			"bufferView":69,
			"componentType":5126,
			"count":4,
			"max":[
				4.199999809265137,
				1,
				0
			],
			"min":[
				2.4000000953674316,
				-0.800000011920929,
				0
			],
			"type":"VEC3"
		},
		{
			"bufferView":70,
			"componentType":5126,
			"count":4,
			"type":"VEC3"
		},
		{
			"bufferView":71,
			"componentType":5126,
			"count":4,
			"type":"VEC2"
		},
		{
			"bufferView":72,
			"componentType":5126,
			"count":4,
			"type":"VEC4"
		}
	],
	"bufferViews":[
		{
			"buffer":0,
			"byteLength":48,
			"byteOffset":0,
			"target":34962
		},
		{
			"buffer":0,
			"byteLength":48,
			"byteOffset":48,
			"target":34962
		},
		{
			"buffer":0,
			"byteLength":32,
			"byteOffset":96,
			"target":34962
		},
		{
			"buffer":0,
			"byteLength":64,
			"byteOffset":128,
			"target":34962
		},
		{
			"buffer":0,
			"byteLength":12,
			"byteOffset":192,
			"target":34963
		},
		{
			"buffer":0,
			"byteLength":48,
			"byteOffset":204,
			"target":34962
		},
		{
			"buffer":0,
			"byteLength":48,
			"byteOffset":252,
			"target":34962
		},
		{
			"buffer":0,
			"byteLength":32,
			"byteOffset":300,
			"target":34962
		},
		{
			"buffer":0,
			"byteLength":64,
			"byteOffset":332,
			"target":34962
		},
		{
			"buffer":0,
			"byteLength":48,
			"byteOffset":396,
			"target":34962
		},
		{
			"buffer":0,
			"byteLength":48,
			"byteOffset":444,
			"target":34962
		},
		{
			"buffer":0,
			"byteLength":32,
			"byteOffset":492,
			"target":34962
		},
		{
			"buffer":0,
			"byteLength":64,
			"byteOffset":524,
			"target":34962
		},
		{
			"buffer":0,
			"byteLength":48,
			"byteOffset":588,
			"target":34962
		},
		{
			"buffer":0,
			"byteLength":48,
			"byteOffset":636,
			"target":34962
		},
		{
			"buffer":0,
			"byteLength":32,
			"byteOffset":684,
			"target":34962
		},
		{
			"buffer":0,
			"byteLength":64,
			"byteOffset":716,
			"target":34962
		},
		{
			"buffer":0,
			"byteLength":48,
			"byteOffset":780,
			"target":34962
		},
		{
			"buffer":0,
			"byteLength":48,
			"byteOffset":828,
			"target":34962
		},
		{
			"buffer":0,
			"byteLength":32,
			"byteOffset":876,
			"target":34962
		},
		{
			"buffer":0,
			"byteLength":64,
			"byteOffset":908,
			"target":34962
		},
		{
			"buffer":0,
			"byteLength":48,
			"byteOffset":972,
			"target":34962
		},
		{
			"buffer":0,
			"byteLength":48,
			"byteOffset":1020,
			"target":34962
		},
		{
			"buffer":0,
			"byteLength":32,
			"byteOffset":1068,
			"target":34962
		},
		{
			"buffer":0,
			"byteLength":64,
			"byteOffset":1100,
			"target":34962
		},
		{
			"buffer":0,
			"byteLength":48,
			"byteOffset":1164,
			"target":34962
		},
		{
			"buffer":0,
			"byteLength":48,
			"byteOffset":1212,
			"target":34962
		},
		{
			"buffer":0,
			"byteLength":32,
			"byteOffset":1260,
			"target":34962
		},
		{
			"buffer":0,
			"byteLength":64,
			"byteOffset":1292,
			"target":34962
		},
		{
			"buffer":0,
			"byteLength":48,
			"byteOffset":1356,
			"target":34962
		},
		{
			"buffer":0,
			"byteLength":48,
			"byteOffset":1404,
			"target":34962
		},
		{
			"buffer":0,
			"byteLength":32,
			"byteOffset":1452,
			"target":34962
		},
		{
			"buffer":0,
			"byteLength":64,
			"byteOffset":1484,
			"target":34962
		},
		{
			"buffer":0,
			"byteLength":48,
			"byteOffset":1548,
			"target":34962
		},
		{
			"buffer":0,
			"byteLength":48,
			"byteOffset":1596,
			"target":34962
		},
		{
			"buffer":0,
			"byteLength":32,
			"byteOffset":1644,
			"target":34962
		},
		{
			"buffer":0,
			"byteLength":64,
			"byteOffset":1676,
			"target":34962
		},
		{
			"buffer":0,
			"byteLength":48,
			"byteOffset":1740,
			"target":34962
		},
		{
			"buffer":0,
			"byteLength":48,
			"byteOffset":1788,
			"target":34962
		},
		{
			"buffer":0,
			"byteLength":32,
			"byteOffset":1836,
			"target":34962
		},
		{
			"buffer":0,
			"byteLength":64,
			"byteOffset":1868,
			"target":34962
		},
		{
			"buffer":0,
			"byteLength":48,
			"byteOffset":1932,
			"target":34962
		},
		{
			"buffer":0,
			"byteLength":48,
			"byteOffset":1980,
			"target":34962
		},
		{
			"buffer":0,
			"byteLength":32,
			"byteOffset":2028,
			"target":34962
		},
		{
			"buffer":0,
			"byteLength":64,
			"byteOffset":2060,
			"target":34962
		},
		{
			"buffer":0,
			"byteLength":48,
			"byteOffset":2124,
			"target":34962
		},
		{
			"buffer":0,
			"byteLength":48,
			"byteOffset":2172,
			"target":34962
		},
		{
			"buffer":0,
			"byteLength":32,
			"byteOffset":2220,
			"target":34962
		},
		{
			"buffer":0,
			"byteLength":64,
			"byteOffset":2252,
			"target":34962
		},
		{
			"buffer":0,
			"byteLength":48,
			"byteOffset":2316,
			"target":34962
		},
		{
			"buffer":0,
			"byteLength":48,
			"byteOffset":2364,
			"target":34962
		},
		{
			"buffer":0,
			"byteLength":32,
			"byteOffset":2412,
			"target":34962
		},
		{
			"buffer":0,
			"byteLength":64,
			"byteOffset":2444,
			"target":34962
		},
		{
			"buffer":0,
			"byteLength":48,
			"byteOffset":2508,
			"target":34962
		},
		{
			"buffer":0,
			"byteLength":48,
			"byteOffset":2556,
			"target":34962
		},
		{
			"buffer":0,
			"byteLength":32,
			"byteOffset":2604,
			"target":34962
		},
		{
			"buffer":0,
			"byteLength":64,
			"byteOffset":2636,
			"target":34962
		},
		{
			"buffer":0,
			"byteLength":48,
			"byteOffset":2700,
			"target":34962
		},
		{
			"buffer":0,
			"byteLength":48,
			"byteOffset":2748,
			"target":34962
		},
		{
			"buffer":0,
			"byteLength":32,
			"byteOffset":2796,
			"target":34962
		},
		{
			"buffer":0,
			"byteLength":64,
			"byteOffset":2828,
			"target":34962
		},
		{
			"buffer":0,
			"byteLength":48,
			"byteOffset":2892,
			"target":34962
		},
		{
			"buffer":0,
			"byteLength":48,
			"byteOffset":2940,
			"target":34962
		},
		{
			"buffer":0,
			"byteLength":32,
			"byteOffset":2988,
			"target":34962
		},
		{
			"buffer":0,
			"byteLength":64,
			"byteOffset":3020,
			"target":34962
		},
		{
			"buffer":0,
			"byteLength":48,
			"byteOffset":3084,
			"target":34962
		},
		{
			"buffer":0,
			"byteLength":48,
			"byteOffset":3132,
			"target":34962
		},
		{
			"buffer":0,
			"byteLength":32,
			"byteOffset":3180,
			"target":34962
		},
		{
			"buffer":0,
			"byteLength":64,
			"byteOffset":3212,
			"target":34962
		},
		{
			"buffer":0,
			"byteLength":48,
			"byteOffset":3276,
			"target":34962
		},
		{
			"buffer":0,
			"byteLength":48,
			"byteOffset":3324,
			"target":34962
		},
		{
			"buffer":0,
			"byteLength":32,
			"byteOffset":3372,
			"target":34962
		},
		{
			"buffer":0,
			"byteLength":64,
			"byteOffset":3404,
			"target":34962
		}
	],
	"samplers":[
		{
			"magFilter":9729,
			"minFilter":9987
		}
	],
	"buffers":[
		{
			"byteLength":3468,
			"uri":"GGLabTextureContract.bin"
		}
	]
}
