{
	"asset":{
		"generator":"Khronos glTF Blender I/O v5.1.19",
		"version":"2.0"
	},
	"extensionsUsed":[
		"KHR_lights_punctual"
	],
	"extensionsRequired":[
		"KHR_lights_punctual"
	],
	"extensions":{
		"KHR_lights_punctual":{
			"lights":[
				{
					"color":[
						1,
						1,
						1
					],
					"intensity":683,
					"type":"directional",
					"name":"SUN_Reference_Data"
				}
			]
		}
	},
	"scene":0,
	"scenes":[
		{
			"name":"GGLabIslandPrototype",
			"nodes":[
				0,
				1,
				4,
				5,
				6,
				7,
				8,
				9
			]
		}
	],
	"nodes":[
		{
			"mesh":0,
			"name":"Cube_Floor",
			"translation":[
				0,
				0.10000000149011612,
				0
			]
		},
		{
			"mesh":1,
			"name":"Cube_Wall",
			"translation":[
				0,
				2.200000047683716,
				-4.900000095367432
			]
		},
		{
			"mesh":2,
			"name":"Cube_Block_A_Marker",
			"translation":[
				0.800000011920929,
				0.5,
				0
			]
		},
		{
			"children":[
				2
			],
			"mesh":3,
			"name":"Cube_Block_A",
			"rotation":[
				0,
				0.13052619993686676,
				0,
				0.9914448857307434
			],
			"translation":[
				0,
				1,
				0
			]
		},
		{
			"children":[
				3
			],
			"name":"ROOT_TransformTest",
			"rotation":[
				0,
				0.1736481636762619,
				0,
				0.9848077893257141
			],
			"translation":[
				-1.7999999523162842,
				0.20000000298023224,
				-0.5
			]
		},
		{
			"mesh":4,
			"name":"Cube_Block_B",
			"rotation":[
				0,
				-0.2164396345615387,
				0,
				0.976296067237854
			],
			"scale":[
				1,
				0.25,
				0.4999999701976776
			],
			"translation":[
				2,
				0.44999998807907104,
				1.2000000476837158
			]
		},
		{
			"mesh":5,
			"name":"Island_Placeholder",
			"translation":[
				0,
				-0.4000000059604645,
				0
			]
		},
		{
			"mesh":6,
			"name":"Ocean_Placeholder",
			"translation":[
				0,
				-0.44999998807907104,
				0
			]
		},
		{
			"camera":0,
			"name":"CAM_Reference",
			"rotation":[
				-0.22968201339244843,
				0.30362164974212646,
				0.07566941529512405,
				0.9215933084487915
			],
			"translation":[
				17,
				16,
				23
			]
		},
		{
			"extensions":{
				"KHR_lights_punctual":{
					"light":0
				}
			},
			"name":"SUN_Reference",
			"rotation":[
				-0.478510320186615,
				0.3963172435760498,
				0.25609090924263,
				0.740525484085083
			],
			"translation":[
				5,
				10,
				-7
			]
		}
	],
	"cameras":[
		{
			"name":"CAM_Reference_Data",
			"perspective":{
				"aspectRatio":1.7777777777777777,
				"yfov":0.4426289085209859,
				"zfar":100,
				"znear":0.10000000149011612
			},
			"type":"perspective"
		}
	],
	"materials":[
		{
			"doubleSided":true,
			"name":"MAT_GreyRough",
			"pbrMetallicRoughness":{
				"baseColorFactor":[
					0.47999998927116394,
					0.47999998927116394,
					0.47999998927116394,
					1
				],
				"metallicFactor":0,
				"roughnessFactor":0.800000011920929
			}
		},
		{
			"doubleSided":true,
			"name":"MAT_RedRough",
			"pbrMetallicRoughness":{
				"baseColorFactor":[
					0.6499999761581421,
					0.03500000014901161,
					0.02500000037252903,
					1
				],
				"metallicFactor":0,
				"roughnessFactor":0.699999988079071
			}
		},
		{
			"doubleSided":true,
			"name":"MAT_Metallic",
			"pbrMetallicRoughness":{
				"baseColorFactor":[
					0.550000011920929,
					0.5799999833106995,
					0.6200000047683716,
					1
				],
				"roughnessFactor":0.23000000417232513
			}
		},
		{
			"doubleSided":true,
			"name":"MAT_SmoothDielectric",
			"pbrMetallicRoughness":{
				"baseColorFactor":[
					0.014999999664723873,
					0.054999999701976776,
					0.10499999672174454,
					1
				],
				"metallicFactor":0,
				"roughnessFactor":0.10000000149011612
			}
		}
	],
	"meshes":[
		{
			"name":"Cube_Floor_Mesh",
			"primitives":[
				{
					"attributes":{
						"POSITION":0,
						"NORMAL":1,
						"TEXCOORD_0":2
					},
					"indices":3,
					"material":0
				}
			]
		},
		{
			"name":"Cube_Wall_Mesh",
			"primitives":[
				{
					"attributes":{
						"POSITION":4,
						"NORMAL":5,
						"TEXCOORD_0":6
					},
					"indices":3,
					"material":0
				}
			]
		},
		{
			"name":"Cube_Block_A_Marker_Mesh",
			"primitives":[
				{
					"attributes":{
						"POSITION":7,
						"NORMAL":8,
						"TEXCOORD_0":9
					},
					"indices":3,
					"material":0
				}
			]
		},
		{
			"name":"Cube_Block_A_Mesh",
			"primitives":[
				{
					"attributes":{
						"POSITION":10,
						"NORMAL":11,
						"TEXCOORD_0":12
					},
					"indices":3,
					"material":1
				}
			]
		},
		{
			"name":"Cube_Block_B_Mesh",
			"primitives":[
				{
					"attributes":{
						"POSITION":13,
						"NORMAL":14,
						"TEXCOORD_0":15
					},
					"indices":3,
					"material":2
				}
			]
		},
		{
			"name":"Island_Placeholder_Mesh",
			"primitives":[
				{
					"attributes":{
						"POSITION":16,
						"NORMAL":17,
						"TEXCOORD_0":18
					},
					"indices":19,
					"material":0
				}
			]
		},
		{
			"name":"Ocean_Placeholder_Mesh",
			"primitives":[
				{
					"attributes":{
						"POSITION":20,
						"NORMAL":21,
						"TEXCOORD_0":22
					},
					"indices":23,
					"material":3
				}
			]
		}
	],
	"accessors":[
		{
			"bufferView":0,
			"componentType":5126,
			"count":24,
			"max":[
				5,
				0.10000000149011612,
				5
			],
			"min":[
				-5,
				-0.10000000149011612,
				-5
			],
			"type":"VEC3"
		},
		{
			"bufferView":1,
			"componentType":5126,
			"count":24,
			"type":"VEC3"
		},
		{
			"bufferView":2,
			"componentType":5126,
			"count":24,
			"type":"VEC2"
		},
		{
			"bufferView":3,
			"componentType":5123,
			"count":36,
			"type":"SCALAR"
		},
		{
			"bufferView":4,
			"componentType":5126,
			"count":24,
			"max":[
				5,
				2,
				0.10000000149011612
			],
			"min":[
				-5,
				-2,
				-0.10000000149011612
			],
			"type":"VEC3"
		},
		{
			"bufferView":5,
			"componentType":5126,
			"count":24,
			"type":"VEC3"
		},
		{
			"bufferView":6,
			"componentType":5126,
			"count":24,
			"type":"VEC2"
		},
		{
			"bufferView":7,
			"componentType":5126,
			"count":24,
			"max":[
				0.30000001192092896,
				0.125,
				0.125
			],
			"min":[
				-0.30000001192092896,
				-0.125,
				-0.125
			],
			"type":"VEC3"
		},
		{
			"bufferView":8,
			"componentType":5126,
			"count":24,
			"type":"VEC3"
		},
		{
			"bufferView":9,
			"componentType":5126,
			"count":24,
			"type":"VEC2"
		},
		{
			"bufferView":10,
			"componentType":5126,
			"count":24,
			"max":[
				0.5,
				1,
				0.5
			],
			"min":[
				-0.5,
				-1,
				-0.5
			],
			"type":"VEC3"
		},
		{
			"bufferView":11,
			"componentType":5126,
			"count":24,
			"type":"VEC3"
		},
		{
			"bufferView":12,
			"componentType":5126,
			"count":24,
			"type":"VEC2"
		},
		{
			"bufferView":13,
			"componentType":5126,
			"count":24,
			"max":[
				1,
				1,
				1
			],
			"min":[
				-1,
				-1,
				-1
			],
			"type":"VEC3"
		},
		{
			"bufferView":14,
			"componentType":5126,
			"count":24,
			"type":"VEC3"
		},
		{
			"bufferView":15,
			"componentType":5126,
			"count":24,
			"type":"VEC2"
		},
		{
			"bufferView":16,
			"componentType":5126,
			"count":72,
			"max":[
				7.75,
				0.4000000059604645,
				7
			],
			"min":[
				-7.75,
				-0.4000000059604645,
				-7
			],
			"type":"VEC3"
		},
		{
			"bufferView":17,
			"componentType":5126,
			"count":72,
			"type":"VEC3"
		},
		{
			"bufferView":18,
			"componentType":5126,
			"count":72,
			"type":"VEC2"
		},
		{
			"bufferView":19,
			"componentType":5123,
			"count":132,
			"type":"SCALAR"
		},
		{
			"bufferView":20,
			"componentType":5126,
			"count":4,
			"max":[
				20,
				0,
				20
			],
			"min":[
				-20,
				0,
				-20
			],
			"type":"VEC3"
		},
		{
			"bufferView":21,
			"componentType":5126,
			"count":4,
			"type":"VEC3"
		},
		{
			"bufferView":22,
			"componentType":5126,
			"count":4,
			"type":"VEC2"
		},
		{
			"bufferView":23,
			"componentType":5123,
			"count":6,
			"type":"SCALAR"
		}
	],
	"bufferViews":[
		{
			"buffer":0,
			"byteLength":288,
			"byteOffset":0,
			"target":34962
		},
		{
			"buffer":0,
			"byteLength":288,
			"byteOffset":288,
			"target":34962
		},
		{
			"buffer":0,
			"byteLength":192,
			"byteOffset":576,
			"target":34962
		},
		{
			"buffer":0,
			"byteLength":72,
			"byteOffset":768,
			"target":34963
		},
		{
			"buffer":0,
			"byteLength":288,
			"byteOffset":840,
			"target":34962
		},
		{
			"buffer":0,
			"byteLength":288,
			"byteOffset":1128,
			"target":34962
		},
		{
			"buffer":0,
			"byteLength":192,
			"byteOffset":1416,
			"target":34962
		},
		{
			"buffer":0,
			"byteLength":288,
			"byteOffset":1608,
			"target":34962
		},
		{
			"buffer":0,
			"byteLength":288,
			"byteOffset":1896,
			"target":34962
		},
		{
			"buffer":0,
			"byteLength":192,
			"byteOffset":2184,
			"target":34962
		},
		{
			"buffer":0,
			"byteLength":288,
			"byteOffset":2376,
			"target":34962
		},
		{
			"buffer":0,
			"byteLength":288,
			"byteOffset":2664,
			"target":34962
		},
		{
			"buffer":0,
			"byteLength":192,
			"byteOffset":2952,
			"target":34962
		},
		{
			"buffer":0,
			"byteLength":288,
			"byteOffset":3144,
			"target":34962
		},
		{
			"buffer":0,
			"byteLength":288,
			"byteOffset":3432,
			"target":34962
		},
		{
			"buffer":0,
			"byteLength":192,
			"byteOffset":3720,
			"target":34962
		},
		{
			"buffer":0,
			"byteLength":864,
			"byteOffset":3912,
			"target":34962
		},
		{
			"buffer":0,
			"byteLength":864,
			"byteOffset":4776,
			"target":34962
		},
		{
			"buffer":0,
			"byteLength":576,
			"byteOffset":5640,
			"target":34962
		},
		{
			"buffer":0,
			"byteLength":264,
			"byteOffset":6216,
			"target":34963
		},
		{
			"buffer":0,
			"byteLength":48,
			"byteOffset":6480,
			"target":34962
		},
		{
			"buffer":0,
			"byteLength":48,
			"byteOffset":6528,
			"target":34962
		},
		{
			"buffer":0,
			"byteLength":32,
			"byteOffset":6576,
			"target":34962
		},
		{
			"buffer":0,
			"byteLength":12,
			"byteOffset":6608,
			"target":34963
		}
	],
	"buffers":[
		{
			"byteLength":6620,
			"uri":"GGLabIslandPrototype.bin"
		}
	]
}
