{
	"asset":{
		"generator":"Khronos glTF Blender I/O v5.1.19",
		"version":"2.0"
	},
	"scene":0,
	"scenes":[
		{
			"name":"GGLabLightingContract",
			"nodes":[
				0,
				1,
				2,
				3,
				4,
				5,
				6,
				7,
				8,
				9,
				10,
				11,
				12,
				13,
				14,
				15,
				16,
				17,
				18
			]
		}
	],
	"nodes":[
		{
			"mesh":0,
			"name":"Card_Reflectance_02",
			"rotation":[
				0.7071068286895752,
				0,
				0,
				0.7071068286895752
			],
			"translation":[
				-3.299999952316284,
				2,
				0
			]
		},
		{
			"mesh":1,
			"name":"Card_Reflectance_18",
			"rotation":[
				0.7071068286895752,
				0,
				0,
				0.7071068286895752
			],
			"translation":[
				-1.100000023841858,
				2,
				0
			]
		},
		{
			"mesh":2,
			"name":"Card_Reflectance_50",
			"rotation":[
				0.7071068286895752,
				0,
				0,
				0.7071068286895752
			],
			"translation":[
				1.100000023841858,
				2,
				0
			]
		},
		{
			"mesh":3,
			"name":"Card_Reflectance_90",
			"rotation":[
				0.7071068286895752,
				0,
				0,
				0.7071068286895752
			],
			"translation":[
				3.299999952316284,
				2,
				0
			]
		},
		{
			"mesh":4,
			"name":"Sphere_Matte",
			"translation":[
				12.699999809265137,
				0.800000011920929,
				0
			]
		},
		{
			"mesh":5,
			"name":"Sphere_RoughDielectric",
			"translation":[
				14.899999618530273,
				0.800000011920929,
				0
			]
		},
		{
			"mesh":6,
			"name":"Sphere_SmoothDielectric",
			"translation":[
				17.100000381469727,
				0.800000011920929,
				0
			]
		},
		{
			"mesh":7,
			"name":"Sphere_Metallic",
			"translation":[
				19.299999237060547,
				0.800000011920929,
				0
			]
		},
		{
			"mesh":8,
			"name":"Receiver_Horizontal",
			"translation":[
				29.399999618530273,
				1.399999976158142,
				0
			]
		},
		{
			"mesh":9,
			"name":"Receiver_Vertical",
			"rotation":[
				0.7071068286895752,
				0,
				0,
				0.7071068286895752
			],
			"translation":[
				32,
				1.399999976158142,
				0
			]
		},
		{
			"mesh":10,
			"name":"Receiver_Tilt45",
			"rotation":[
				0.3826834559440613,
				0,
				0,
				0.9238795638084412
			],
			"translation":[
				34.599998474121094,
				1.399999976158142,
				0
			]
		},
		{
			"mesh":11,
			"name":"Ground_Chart",
			"translation":[
				0,
				-0.05000000074505806,
				-1
			]
		},
		{
			"mesh":12,
			"name":"Ground_Spheres",
			"translation":[
				16,
				-0.05000000074505806,
				-1
			]
		},
		{
			"mesh":13,
			"name":"Ground_Angles",
			"translation":[
				32,
				-0.05000000074505806,
				-1
			]
		},
		{
			"mesh":14,
			"name":"Scale_OneMeter",
			"translation":[
				21,
				0.5,
				-3
			]
		},
		{
			"name":"SUN_Direction_45deg",
			"rotation":[
				0.3826834559440613,
				0,
				0,
				0.9238795638084412
			]
		},
		{
			"camera":0,
			"name":"CAM_ExposureChart",
			"translation":[
				0,
				2,
				10
			]
		},
		{
			"camera":1,
			"name":"CAM_LightingSphere",
			"rotation":[
				-0.12993279099464417,
				0,
				0,
				0.9915227890014648
			],
			"translation":[
				16,
				3.200000047683716,
				9
			]
		},
		{
			"camera":2,
			"name":"CAM_SunAngles",
			"rotation":[
				-0.286613404750824,
				0,
				0,
				0.9580463171005249
			],
			"translation":[
				32,
				6,
				7
			]
		}
	],
	"cameras":[
		{
			"name":"CAM_ExposureChart_Data",
			"perspective":{
				"aspectRatio":1.7777777777777777,
				"yfov":0.5483348957076358,
				"zfar":100,
				"znear":0.10000000149011612
			},
			"type":"perspective"
		},
		{
			"name":"CAM_LightingSphere_Data",
			"perspective":{
				"aspectRatio":1.7777777777777777,
				"yfov":0.6509917361266737,
				"zfar":100,
				"znear":0.10000000149011612
			},
			"type":"perspective"
		},
		{
			"name":"CAM_SunAngles_Data",
			"perspective":{
				"aspectRatio":1.7777777777777777,
				"yfov":0.6128792659619432,
				"zfar":100,
				"znear":0.10000000149011612
			},
			"type":"perspective"
		}
	],
	"materials":[
		{
			"doubleSided":true,
			"name":"MAT_Reflectance_02",
			"pbrMetallicRoughness":{
				"baseColorFactor":[
					0.019999999552965164,
					0.019999999552965164,
					0.019999999552965164,
					1
				],
				"metallicFactor":0
			}
		},
		{
			"doubleSided":true,
			"name":"MAT_Reflectance_18",
			"pbrMetallicRoughness":{
				"baseColorFactor":[
					0.18000000715255737,
					0.18000000715255737,
					0.18000000715255737,
					1
				],
				"metallicFactor":0
			}
		},
		{
			"doubleSided":true,
			"name":"MAT_Reflectance_50",
			"pbrMetallicRoughness":{
				"baseColorFactor":[
					0.5,
					0.5,
					0.5,
					1
				],
				"metallicFactor":0
			}
		},
		{
			"doubleSided":true,
			"name":"MAT_Reflectance_90",
			"pbrMetallicRoughness":{
				"baseColorFactor":[
					0.8999999761581421,
					0.8999999761581421,
					0.8999999761581421,
					1
				],
				"metallicFactor":0
			}
		},
		{
			"doubleSided":true,
			"name":"MAT_Sphere_Matte",
			"pbrMetallicRoughness":{
				"baseColorFactor":[
					0.18000000715255737,
					0.18000000715255737,
					0.18000000715255737,
					1
				],
				"metallicFactor":0
			}
		},
		{
			"doubleSided":true,
			"name":"MAT_Sphere_RoughDielectric",
			"pbrMetallicRoughness":{
				"baseColorFactor":[
					0.18000000715255737,
					0.18000000715255737,
					0.18000000715255737,
					1
				],
				"metallicFactor":0,
				"roughnessFactor":0.5
			}
		},
		{
			"doubleSided":true,
			"name":"MAT_Sphere_SmoothDielectric",
			"pbrMetallicRoughness":{
				"baseColorFactor":[
					0.18000000715255737,
					0.18000000715255737,
					0.18000000715255737,
					1
				],
				"metallicFactor":0,
				"roughnessFactor":0.05000000074505806
			}
		},
		{
			"doubleSided":true,
			"name":"MAT_Sphere_Metallic",
			"pbrMetallicRoughness":{
				"baseColorFactor":[
					0.18000000715255737,
					0.18000000715255737,
					0.18000000715255737,
					1
				],
				"roughnessFactor":0.10000000149011612
			}
		},
		{
			"doubleSided":true,
			"name":"MAT_Ground",
			"pbrMetallicRoughness":{
				"baseColorFactor":[
					0.07999999821186066,
					0.07999999821186066,
					0.07999999821186066,
					1
				],
				"metallicFactor":0
			}
		}
	],
	"meshes":[
		{
			"name":"Card_Reflectance_02_Mesh",
			"primitives":[
				{
					"attributes":{
						"POSITION":0,
						"NORMAL":1,
						"TEXCOORD_0":2,
						"TANGENT":3
					},
					"indices":4,
					"material":0
				}
			]
		},
		{
			"name":"Card_Reflectance_18_Mesh",
			"primitives":[
				{
					"attributes":{
						"POSITION":5,
						"NORMAL":6,
						"TEXCOORD_0":7,
						"TANGENT":8
					},
					"indices":4,
					"material":1
				}
			]
		},
		{
			"name":"Card_Reflectance_50_Mesh",
			"primitives":[
				{
					"attributes":{
						"POSITION":9,
						"NORMAL":10,
						"TEXCOORD_0":11,
						"TANGENT":12
					},
					"indices":4,
					"material":2
				}
			]
		},
		{
			"name":"Card_Reflectance_90_Mesh",
			"primitives":[
				{
					"attributes":{
						"POSITION":13,
						"NORMAL":14,
						"TEXCOORD_0":15,
						"TANGENT":16
					},
					"indices":4,
					"material":3
				}
			]
		},
		{
			"name":"Sphere_Matte_Mesh",
			"primitives":[
				{
					"attributes":{
						"POSITION":17,
						"NORMAL":18,
						"TEXCOORD_0":19,
						"TANGENT":20
					},
					"indices":21,
					"material":4
				}
			]
		},
		{
			"name":"Sphere_RoughDielectric_Mesh",
			"primitives":[
				{
					"attributes":{
						"POSITION":22,
						"NORMAL":23,
						"TEXCOORD_0":24,
						"TANGENT":25
					},
					"indices":26,
					"material":5
				}
			]
		},
		{
			"name":"Sphere_SmoothDielectric_Mesh",
			"primitives":[
				{
					"attributes":{
						"POSITION":27,
						"NORMAL":28,
						"TEXCOORD_0":29,
						"TANGENT":30
					},
					"indices":31,
					"material":6
				}
			]
		},
		{
			"name":"Sphere_Metallic_Mesh",
			"primitives":[
				{
					"attributes":{
						"POSITION":32,
						"NORMAL":33,
						"TEXCOORD_0":34,
						"TANGENT":35
					},
					"indices":36,
					"material":7
				}
			]
		},
		{
			"name":"Receiver_Horizontal_Mesh",
			"primitives":[
				{
					"attributes":{
						"POSITION":37,
						"NORMAL":38,
						"TEXCOORD_0":39,
						"TANGENT":40
					},
					"indices":4,
					"material":1
				}
			]
		},
		{
			"name":"Receiver_Vertical_Mesh",
			"primitives":[
				{
					"attributes":{
						"POSITION":41,
						"NORMAL":42,
						"TEXCOORD_0":43,
						"TANGENT":44
					},
					"indices":4,
					"material":1
				}
			]
		},
		{
			"name":"Receiver_Tilt45_Mesh",
			"primitives":[
				{
					"attributes":{
						"POSITION":45,
						"NORMAL":46,
						"TEXCOORD_0":47,
						"TANGENT":48
					},
					"indices":4,
					"material":1
				}
			]
		},
		{
			"name":"Ground_Chart_Mesh",
			"primitives":[
				{
					"attributes":{
						"POSITION":49,
						"NORMAL":50,
						"TEXCOORD_0":51,
						"TANGENT":52
					},
					"indices":53,
					"material":8
				}
			]
		},
		{
			"name":"Ground_Spheres_Mesh",
			"primitives":[
				{
					"attributes":{
						"POSITION":54,
						"NORMAL":55,
						"TEXCOORD_0":56,
						"TANGENT":57
					},
					"indices":53,
					"material":8
				}
			]
		},
		{
			"name":"Ground_Angles_Mesh",
			"primitives":[
				{
					"attributes":{
						"POSITION":58,
						"NORMAL":59,
						"TEXCOORD_0":60,
						"TANGENT":61
					},
					"indices":53,
					"material":8
				}
			]
		},
		{
			"name":"Scale_OneMeter_Mesh",
			"primitives":[
				{
					"attributes":{
						"POSITION":62,
						"NORMAL":63,
						"TEXCOORD_0":64,
						"TANGENT":65
					},
					"indices":53,
					"material":1
				}
			]
		}
	],
	"accessors":[
		{
			"bufferView":0,
			"componentType":5126,
			"count":4,
			"max":[
				0.8999999761581421,
				0,
				0.8999999761581421
			],
			"min":[
				-0.8999999761581421,
				0,
				-0.8999999761581421
			],
			"type":"VEC3"
		},
		{
			"bufferView":1,
			"componentType":5126,
			"count":4,
			"type":"VEC3"
		},
		{
			"bufferView":2,
			"componentType":5126,
			"count":4,
			"type":"VEC2"
		},
		{
			"bufferView":3,
			"componentType":5126,
			"count":4,
			"type":"VEC4"
		},
		{
			"bufferView":4,
			"componentType":5123,
			"count":6,
			"type":"SCALAR"
		},
		{
			"bufferView":5,
			"componentType":5126,
			"count":4,
			"max":[
				0.8999999761581421,
				0,
				0.8999999761581421
			],
			"min":[
				-0.8999999761581421,
				0,
				-0.8999999761581421
			],
			"type":"VEC3"
		},
		{
			"bufferView":6,
			"componentType":5126,
			"count":4,
			"type":"VEC3"
		},
		{
			"bufferView":7,
			"componentType":5126,
			"count":4,
			"type":"VEC2"
		},
		{
			"bufferView":8,
			"componentType":5126,
			"count":4,
			"type":"VEC4"
		},
		{
			"bufferView":9,
			"componentType":5126,
			"count":4,
			"max":[
				0.8999999761581421,
				0,
				0.8999999761581421
			],
			"min":[
				-0.8999999761581421,
				0,
				-0.8999999761581421
			],
			"type":"VEC3"
		},
		{
			"bufferView":10,
			"componentType":5126,
			"count":4,
			"type":"VEC3"
		},
		{
			"bufferView":11,
			"componentType":5126,
			"count":4,
			"type":"VEC2"
		},
		{
			"bufferView":12,
			"componentType":5126,
			"count":4,
			"type":"VEC4"
		},
		{
			"bufferView":13,
			"componentType":5126,
			"count":4,
			"max":[
				0.8999999761581421,
				0,
				0.8999999761581421
			],
			"min":[
				-0.8999999761581421,
				0,
				-0.8999999761581421
			],
			"type":"VEC3"
		},
		{
			"bufferView":14,
			"componentType":5126,
			"count":4,
			"type":"VEC3"
		},
		{
			"bufferView":15,
			"componentType":5126,
			"count":4,
			"type":"VEC2"
		},
		{
			"bufferView":16,
			"componentType":5126,
			"count":4,
			"type":"VEC4"
		},
		{
			"bufferView":17,
			"componentType":5126,
			"count":2143,
			"max":[
				0.7999998927116394,
				0.800000011920929,
				0.7999997735023499
			],
			"min":[
				-0.7999995946884155,
				-0.800000011920929,
				-0.800000011920929
			],
			"type":"VEC3"
		},
		{
			"bufferView":18,
			"componentType":5126,
			"count":2143,
			"type":"VEC3"
		},
		{
			"bufferView":19,
			"componentType":5126,
			"count":2143,
			"type":"VEC2"
		},
		{
			"bufferView":20,
			"componentType":5126,
			"count":2143,
			"type":"VEC4"
		},
		{
			"bufferView":21,
			"componentType":5123,
			"count":11904,
			"type":"SCALAR"
		},
		{
			"bufferView":22,
			"componentType":5126,
			"count":2143,
			"max":[
				0.7999998927116394,
				0.800000011920929,
				0.7999997735023499
			],
			"min":[
				-0.7999995946884155,
				-0.800000011920929,
				-0.800000011920929
			],
			"type":"VEC3"
		},
		{
			"bufferView":23,
			"componentType":5126,
			"count":2143,
			"type":"VEC3"
		},
		{
			"bufferView":24,
			"componentType":5126,
			"count":2143,
			"type":"VEC2"
		},
		{
			"bufferView":25,
			"componentType":5126,
			"count":2143,
			"type":"VEC4"
		},
		{
			"bufferView":26,
			"componentType":5123,
			"count":11904,
			"type":"SCALAR"
		},
		{
			"bufferView":27,
			"componentType":5126,
			"count":2143,
			"max":[
				0.7999998927116394,
				0.800000011920929,
				0.7999997735023499
			],
			"min":[
				-0.7999995946884155,
				-0.800000011920929,
				-0.800000011920929
			],
			"type":"VEC3"
		},
		{
			"bufferView":28,
			"componentType":5126,
			"count":2143,
			"type":"VEC3"
		},
		{
			"bufferView":29,
			"componentType":5126,
			"count":2143,
			"type":"VEC2"
		},
		{
			"bufferView":30,
			"componentType":5126,
			"count":2143,
			"type":"VEC4"
		},
		{
			"bufferView":31,
			"componentType":5123,
			"count":11904,
			"type":"SCALAR"
		},
		{
			"bufferView":32,
			"componentType":5126,
			"count":2143,
			"max":[
				0.7999998927116394,
				0.800000011920929,
				0.7999997735023499
			],
			"min":[
				-0.7999995946884155,
				-0.800000011920929,
				-0.800000011920929
			],
			"type":"VEC3"
		},
		{
			"bufferView":33,
			"componentType":5126,
			"count":2143,
			"type":"VEC3"
		},
		{
			"bufferView":34,
			"componentType":5126,
			"count":2143,
			"type":"VEC2"
		},
		{
			"bufferView":35,
			"componentType":5126,
			"count":2143,
			"type":"VEC4"
		},
		{
			"bufferView":36,
			"componentType":5123,
			"count":11904,
			"type":"SCALAR"
		},
		{
			"bufferView":37,
			"componentType":5126,
			"count":4,
			"max":[
				0.8999999761581421,
				0,
				0.8999999761581421
			],
			"min":[
				-0.8999999761581421,
				0,
				-0.8999999761581421
			],
			"type":"VEC3"
		},
		{
			"bufferView":38,
			"componentType":5126,
			"count":4,
			"type":"VEC3"
		},
		{
			"bufferView":39,
			"componentType":5126,
			"count":4,
			"type":"VEC2"
		},
		{
			"bufferView":40,
			"componentType":5126,
			"count":4,
			"type":"VEC4"
		},
		{
			"bufferView":41,
			"componentType":5126,
			"count":4,
			"max":[
				0.8999999761581421,
				0,
				0.8999999761581421
			],
			"min":[
				-0.8999999761581421,
				0,
				-0.8999999761581421
			],
			"type":"VEC3"
		},
		{
			"bufferView":42,
			"componentType":5126,
			"count":4,
			"type":"VEC3"
		},
		{
			"bufferView":43,
			"componentType":5126,
			"count":4,
			"type":"VEC2"
		},
		{
			"bufferView":44,
			"componentType":5126,
			"count":4,
			"type":"VEC4"
		},
		{
			"bufferView":45,
			"componentType":5126,
			"count":4,
			"max":[
				0.8999999761581421,
				0,
				0.8999999761581421
			],
			"min":[
				-0.8999999761581421,
				0,
				-0.8999999761581421
			],
			"type":"VEC3"
		},
		{
			"bufferView":46,
			"componentType":5126,
			"count":4,
			"type":"VEC3"
		},
		{
			"bufferView":47,
			"componentType":5126,
			"count":4,
			"type":"VEC2"
		},
		{
			"bufferView":48,
			"componentType":5126,
			"count":4,
			"type":"VEC4"
		},
		{
			"bufferView":49,
			"componentType":5126,
			"count":24,
			"max":[
				6,
				0.05000000074505806,
				4
			],
			"min":[
				-6,
				-0.05000000074505806,
				-4
			],
			"type":"VEC3"
		},
		{
			"bufferView":50,
			"componentType":5126,
			"count":24,
			"type":"VEC3"
		},
		{
			"bufferView":51,
			"componentType":5126,
			"count":24,
			"type":"VEC2"
		},
		{
			"bufferView":52,
			"componentType":5126,
			"count":24,
			"type":"VEC4"
		},
		{
			"bufferView":53,
			"componentType":5123,
			"count":36,
			"type":"SCALAR"
		},
		{
			"bufferView":54,
			"componentType":5126,
			"count":24,
			"max":[
				6,
				0.05000000074505806,
				4
			],
			"min":[
				-6,
				-0.05000000074505806,
				-4
			],
			"type":"VEC3"
		},
		{
			"bufferView":55,
			"componentType":5126,
			"count":24,
			"type":"VEC3"
		},
		{
			"bufferView":56,
			"componentType":5126,
			"count":24,
			"type":"VEC2"
		},
		{
			"bufferView":57,
			"componentType":5126,
			"count":24,
			"type":"VEC4"
		},
		{
			"bufferView":58,
			"componentType":5126,
			"count":24,
			"max":[
				6,
				0.05000000074505806,
				4
			],
			"min":[
				-6,
				-0.05000000074505806,
				-4
			],
			"type":"VEC3"
		},
		{
			"bufferView":59,
			"componentType":5126,
			"count":24,
			"type":"VEC3"
		},
		{
			"bufferView":60,
			"componentType":5126,
			"count":24,
			"type":"VEC2"
		},
		{
			"bufferView":61,
			"componentType":5126,
			"count":24,
			"type":"VEC4"
		},
		{
			"bufferView":62,
			"componentType":5126,
			"count":24,
			"max":[
				0.5,
				0.5,
				0.5
			],
			"min":[
				-0.5,
				-0.5,
				-0.5
			],
			"type":"VEC3"
		},
		{
			"bufferView":63,
			"componentType":5126,
			"count":24,
			"type":"VEC3"
		},
		{
			"bufferView":64,
			"componentType":5126,
			"count":24,
			"type":"VEC2"
		},
		{
			"bufferView":65,
			"componentType":5126,
			"count":24,
			"type":"VEC4"
		}
	],
	"bufferViews":[
		{
			"buffer":0,
			"byteLength":48,
			"byteOffset":0,
			"target":34962
		},
		{
			"buffer":0,
			"byteLength":48,
			"byteOffset":48,
			"target":34962
		},
		{
			"buffer":0,
			"byteLength":32,
			"byteOffset":96,
			"target":34962
		},
		{
			"buffer":0,
			"byteLength":64,
			"byteOffset":128,
			"target":34962
		},
		{
			"buffer":0,
			"byteLength":12,
			"byteOffset":192,
			"target":34963
		},
		{
			"buffer":0,
			"byteLength":48,
			"byteOffset":204,
			"target":34962
		},
		{
			"buffer":0,
			"byteLength":48,
			"byteOffset":252,
			"target":34962
		},
		{
			"buffer":0,
			"byteLength":32,
			"byteOffset":300,
			"target":34962
		},
		{
			"buffer":0,
			"byteLength":64,
			"byteOffset":332,
			"target":34962
		},
		{
			"buffer":0,
			"byteLength":48,
			"byteOffset":396,
			"target":34962
		},
		{
			"buffer":0,
			"byteLength":48,
			"byteOffset":444,
			"target":34962
		},
		{
			"buffer":0,
			"byteLength":32,
			"byteOffset":492,
			"target":34962
		},
		{
			"buffer":0,
			"byteLength":64,
			"byteOffset":524,
			"target":34962
		},
		{
			"buffer":0,
			"byteLength":48,
			"byteOffset":588,
			"target":34962
		},
		{
			"buffer":0,
			"byteLength":48,
			"byteOffset":636,
			"target":34962
		},
		{
			"buffer":0,
			"byteLength":32,
			"byteOffset":684,
			"target":34962
		},
		{
			"buffer":0,
			"byteLength":64,
			"byteOffset":716,
			"target":34962
		},
		{
			"buffer":0,
			"byteLength":25716,
			"byteOffset":780,
			"target":34962
		},
		{
			"buffer":0,
			"byteLength":25716,
			"byteOffset":26496,
			"target":34962
		},
		{
			"buffer":0,
			"byteLength":17144,
			"byteOffset":52212,
			"target":34962
		},
		{
			"buffer":0,
			"byteLength":34288,
			"byteOffset":69356,
			"target":34962
		},
		{
			"buffer":0,
			"byteLength":23808,
			"byteOffset":103644,
			"target":34963
		},
		{
			"buffer":0,
			"byteLength":25716,
			"byteOffset":127452,
			"target":34962
		},
		{
			"buffer":0,
			"byteLength":25716,
			"byteOffset":153168,
			"target":34962
		},
		{
			"buffer":0,
			"byteLength":17144,
			"byteOffset":178884,
			"target":34962
		},
		{
			"buffer":0,
			"byteLength":34288,
			"byteOffset":196028,
			"target":34962
		},
		{
			"buffer":0,
			"byteLength":23808,
			"byteOffset":230316,
			"target":34963
		},
		{
			"buffer":0,
			"byteLength":25716,
			"byteOffset":254124,
			"target":34962
		},
		{
			"buffer":0,
			"byteLength":25716,
			"byteOffset":279840,
			"target":34962
		},
		{
			"buffer":0,
			"byteLength":17144,
			"byteOffset":305556,
			"target":34962
		},
		{
			"buffer":0,
			"byteLength":34288,
			"byteOffset":322700,
			"target":34962
		},
		{
			"buffer":0,
			"byteLength":23808,
			"byteOffset":356988,
			"target":34963
		},
		{
			"buffer":0,
			"byteLength":25716,
			"byteOffset":380796,
			"target":34962
		},
		{
			"buffer":0,
			"byteLength":25716,
			"byteOffset":406512,
			"target":34962
		},
		{
			"buffer":0,
			"byteLength":17144,
			"byteOffset":432228,
			"target":34962
		},
		{
			"buffer":0,
			"byteLength":34288,
			"byteOffset":449372,
			"target":34962
		},
		{
			"buffer":0,
			"byteLength":23808,
			"byteOffset":483660,
			"target":34963
		},
		{
			"buffer":0,
			"byteLength":48,
			"byteOffset":507468,
			"target":34962
		},
		{
			"buffer":0,
			"byteLength":48,
			"byteOffset":507516,
			"target":34962
		},
		{
			"buffer":0,
			"byteLength":32,
			"byteOffset":507564,
			"target":34962
		},
		{
			"buffer":0,
			"byteLength":64,
			"byteOffset":507596,
			"target":34962
		},
		{
			"buffer":0,
			"byteLength":48,
			"byteOffset":507660,
			"target":34962
		},
		{
			"buffer":0,
			"byteLength":48,
			"byteOffset":507708,
			"target":34962
		},
		{
			"buffer":0,
			"byteLength":32,
			"byteOffset":507756,
			"target":34962
		},
		{
			"buffer":0,
			"byteLength":64,
			"byteOffset":507788,
			"target":34962
		},
		{
			"buffer":0,
			"byteLength":48,
			"byteOffset":507852,
			"target":34962
		},
		{
			"buffer":0,
			"byteLength":48,
			"byteOffset":507900,
			"target":34962
		},
		{
			"buffer":0,
			"byteLength":32,
			"byteOffset":507948,
			"target":34962
		},
		{
			"buffer":0,
			"byteLength":64,
			"byteOffset":507980,
			"target":34962
		},
		{
			"buffer":0,
			"byteLength":288,
			"byteOffset":508044,
			"target":34962
		},
		{
			"buffer":0,
			"byteLength":288,
			"byteOffset":508332,
			"target":34962
		},
		{
			"buffer":0,
			"byteLength":192,
			"byteOffset":508620,
			"target":34962
		},
		{
			"buffer":0,
			"byteLength":384,
			"byteOffset":508812,
			"target":34962
		},
		{
			"buffer":0,
			"byteLength":72,
			"byteOffset":509196,
			"target":34963
		},
		{
			"buffer":0,
			"byteLength":288,
			"byteOffset":509268,
			"target":34962
		},
		{
			"buffer":0,
			"byteLength":288,
			"byteOffset":509556,
			"target":34962
		},
		{
			"buffer":0,
			"byteLength":192,
			"byteOffset":509844,
			"target":34962
		},
		{
			"buffer":0,
			"byteLength":384,
			"byteOffset":510036,
			"target":34962
		},
		{
			"buffer":0,
			"byteLength":288,
			"byteOffset":510420,
			"target":34962
		},
		{
			"buffer":0,
			"byteLength":288,
			"byteOffset":510708,
			"target":34962
		},
		{
			"buffer":0,
			"byteLength":192,
			"byteOffset":510996,
			"target":34962
		},
		{
			"buffer":0,
			"byteLength":384,
			"byteOffset":511188,
			"target":34962
		},
		{
			"buffer":0,
			"byteLength":288,
			"byteOffset":511572,
			"target":34962
		},
		{
			"buffer":0,
			"byteLength":288,
			"byteOffset":511860,
			"target":34962
		},
		{
			"buffer":0,
			"byteLength":192,
			"byteOffset":512148,
			"target":34962
		},
		{
			"buffer":0,
			"byteLength":384,
			"byteOffset":512340,
			"target":34962
		}
	],
	"buffers":[
		{
			"byteLength":512724,
			"uri":"GGLabLightingContract.bin"
		}
	]
}
