{
	"asset":{
		"generator":"Khronos glTF Blender I/O v5.1.19",
		"version":"2.0"
	},
	"scene":0,
	"scenes":[
		{
			"name":"GGLabAtmosphereRange",
			"nodes":[
				0,
				1,
				2,
				3,
				4,
				5,
				6,
				7,
				8,
				9,
				10,
				11,
				12,
				13,
				14,
				15,
				16,
				17,
				18,
				19,
				20,
				21,
				22,
				23,
				24
			]
		}
	],
	"nodes":[
		{
			"mesh":0,
			"name":"Range_00025m_02",
			"translation":[
				-15.43709659576416,
				24.134490966796875,
				-20.672454833984375
			]
		},
		{
			"mesh":1,
			"name":"Range_00025m_18",
			"translation":[
				-13.43709659576416,
				24.134490966796875,
				-20.672454833984375
			]
		},
		{
			"mesh":2,
			"name":"Range_00025m_90",
			"translation":[
				-11.43709659576416,
				24.134490966796875,
				-20.672454833984375
			]
		},
		{
			"mesh":3,
			"name":"Range_00050m_02",
			"translation":[
				-19.8598690032959,
				29.158906936645508,
				-45.79453659057617
			]
		},
		{
			"mesh":4,
			"name":"Range_00050m_18",
			"translation":[
				-17.8598690032959,
				29.158906936645508,
				-45.79453659057617
			]
		},
		{
			"mesh":5,
			"name":"Range_00050m_90",
			"translation":[
				-15.859869003295898,
				29.158906936645508,
				-45.79453659057617
			]
		},
		{
			"mesh":6,
			"name":"Range_00100m_02",
			"translation":[
				-14.645220756530762,
				39.454185485839844,
				-97.27092742919922
			]
		},
		{
			"mesh":7,
			"name":"Range_00100m_18",
			"translation":[
				-12.645220756530762,
				39.454185485839844,
				-97.27092742919922
			]
		},
		{
			"mesh":8,
			"name":"Range_00100m_90",
			"translation":[
				-10.645220756530762,
				39.454185485839844,
				-97.27092742919922
			]
		},
		{
			"mesh":9,
			"name":"Range_00250m_02",
			"translation":[
				29.61305046081543,
				68.63545989990234,
				-243.1773223876953
			]
		},
		{
			"mesh":10,
			"name":"Range_00250m_18",
			"translation":[
				31.61305046081543,
				68.63545989990234,
				-243.1773223876953
			]
		},
		{
			"mesh":11,
			"name":"Range_00250m_90",
			"translation":[
				33.61305236816406,
				68.63545989990234,
				-243.1773223876953
			]
		},
		{
			"mesh":12,
			"name":"Range_00500m_02",
			"translation":[
				176.59869384765625,
				111.58907318115234,
				-457.9453430175781
			]
		},
		{
			"mesh":13,
			"name":"Range_00500m_18",
			"translation":[
				178.59869384765625,
				111.58907318115234,
				-457.9453430175781
			]
		},
		{
			"mesh":14,
			"name":"Range_00500m_90",
			"translation":[
				180.59869384765625,
				111.58907318115234,
				-457.9453430175781
			]
		},
		{
			"mesh":15,
			"name":"Range_01000m_02",
			"translation":[
				535.4838256835938,
				185.379638671875,
				-826.8982543945312
			]
		},
		{
			"mesh":16,
			"name":"Range_01000m_18",
			"translation":[
				537.4838256835938,
				185.379638671875,
				-826.8982543945312
			]
		},
		{
			"mesh":17,
			"name":"Range_01000m_90",
			"translation":[
				539.4838256835938,
				185.379638671875,
				-826.8982543945312
			]
		},
		{
			"camera":0,
			"name":"CAM_AerialRange",
			"translation":[
				0,
				20,
				0
			]
		},
		{
			"camera":1,
			"name":"CAM_Range_00025m",
			"rotation":[
				0.07955446094274521,
				0.28323492407798767,
				-0.023583099246025085,
				0.9554542899131775
			],
			"translation":[
				0,
				20,
				0
			]
		},
		{
			"camera":2,
			"name":"CAM_Range_00050m",
			"rotation":[
				0.09039408713579178,
				0.1840749979019165,
				-0.017003174871206284,
				0.9785991311073303
			],
			"translation":[
				0,
				20,
				0
			]
		},
		{
			"camera":3,
			"name":"CAM_Range_00100m",
			"rotation":[
				0.0975351482629776,
				0.06428322941064835,
				-0.006313221529126167,
				0.9931337833404541
			],
			"translation":[
				0,
				20,
				0
			]
		},
		{
			"camera":4,
			"name":"CAM_Range_00250m",
			"rotation":[
				0.0975351482629776,
				-0.06428322941064835,
				0.006313221529126167,
				0.9931337833404541
			],
			"translation":[
				0,
				20,
				0
			]
		},
		{
			"camera":5,
			"name":"CAM_Range_00500m",
			"rotation":[
				0.09039408713579178,
				-0.1840749979019165,
				0.017003174871206284,
				0.9785991311073303
			],
			"translation":[
				0,
				20,
				0
			]
		},
		{
			"camera":6,
			"name":"CAM_Range_01000m",
			"rotation":[
				0.07955446094274521,
				-0.28323492407798767,
				0.023583099246025085,
				0.9554542899131775
			],
			"translation":[
				0,
				20,
				0
			]
		}
	],
	"cameras":[
		{
			"name":"CAM_AerialRange_Data",
			"perspective":{
				"aspectRatio":1.7777777777777777,
				"yfov":0.9272952655974979,
				"zfar":2000,
				"znear":0.10000000149011612
			},
			"type":"perspective"
		},
		{
			"name":"CAM_Range_00025m_Data",
			"perspective":{
				"aspectRatio":1.7777777777777777,
				"yfov":0.7610127370202254,
				"zfar":2000,
				"znear":0.10000000149011612
			},
			"type":"perspective"
		},
		{
			"name":"CAM_Range_00050m_Data",
			"perspective":{
				"aspectRatio":1.7777777777777777,
				"yfov":0.39479112873864,
				"zfar":2000,
				"znear":0.10000000149011612
			},
			"type":"perspective"
		},
		{
			"name":"CAM_Range_00100m_Data",
			"perspective":{
				"aspectRatio":1.7777777777777777,
				"yfov":0.1993373153121896,
				"zfar":2000,
				"znear":0.10000000149011612
			},
			"type":"perspective"
		},
		{
			"name":"CAM_Range_00250m_Data",
			"perspective":{
				"aspectRatio":1.7777777777777777,
				"yfov":0.07995737892547448,
				"zfar":2000,
				"znear":0.10000000149011612
			},
			"type":"perspective"
		},
		{
			"name":"CAM_Range_00500m_Data",
			"perspective":{
				"aspectRatio":1.7777777777777777,
				"yfov":0.03999466867413055,
				"zfar":2000,
				"znear":0.10000000149011612
			},
			"type":"perspective"
		},
		{
			"name":"CAM_Range_01000m_Data",
			"perspective":{
				"aspectRatio":1.7777777777777777,
				"yfov":0.01999933450111605,
				"zfar":2000,
				"znear":0.10000000149011612
			},
			"type":"perspective"
		}
	],
	"materials":[
		{
			"doubleSided":true,
			"name":"MAT_Range_02",
			"pbrMetallicRoughness":{
				"baseColorFactor":[
					0.019999999552965164,
					0.019999999552965164,
					0.019999999552965164,
					1
				],
				"metallicFactor":0
			}
		},
		{
			"doubleSided":true,
			"name":"MAT_Range_18",
			"pbrMetallicRoughness":{
				"baseColorFactor":[
					0.18000000715255737,
					0.18000000715255737,
					0.18000000715255737,
					1
				],
				"metallicFactor":0
			}
		},
		{
			"doubleSided":true,
			"name":"MAT_Range_90",
			"pbrMetallicRoughness":{
				"baseColorFactor":[
					0.8999999761581421,
					0.8999999761581421,
					0.8999999761581421,
					1
				],
				"metallicFactor":0
			}
		}
	],
	"meshes":[
		{
			"name":"Range_00025m_02_Mesh",
			"primitives":[
				{
					"attributes":{
						"POSITION":0,
						"NORMAL":1,
						"TEXCOORD_0":2,
						"TANGENT":3
					},
					"indices":4,
					"material":0
				}
			]
		},
		{
			"name":"Range_00025m_18_Mesh",
			"primitives":[
				{
					"attributes":{
						"POSITION":5,
						"NORMAL":6,
						"TEXCOORD_0":7,
						"TANGENT":8
					},
					"indices":4,
					"material":1
				}
			]
		},
		{
			"name":"Range_00025m_90_Mesh",
			"primitives":[
				{
					"attributes":{
						"POSITION":9,
						"NORMAL":10,
						"TEXCOORD_0":11,
						"TANGENT":12
					},
					"indices":4,
					"material":2
				}
			]
		},
		{
			"name":"Range_00050m_02_Mesh",
			"primitives":[
				{
					"attributes":{
						"POSITION":13,
						"NORMAL":14,
						"TEXCOORD_0":15,
						"TANGENT":16
					},
					"indices":4,
					"material":0
				}
			]
		},
		{
			"name":"Range_00050m_18_Mesh",
			"primitives":[
				{
					"attributes":{
						"POSITION":17,
						"NORMAL":18,
						"TEXCOORD_0":19,
						"TANGENT":20
					},
					"indices":4,
					"material":1
				}
			]
		},
		{
			"name":"Range_00050m_90_Mesh",
			"primitives":[
				{
					"attributes":{
						"POSITION":21,
						"NORMAL":22,
						"TEXCOORD_0":23,
						"TANGENT":24
					},
					"indices":4,
					"material":2
				}
			]
		},
		{
			"name":"Range_00100m_02_Mesh",
			"primitives":[
				{
					"attributes":{
						"POSITION":25,
						"NORMAL":26,
						"TEXCOORD_0":27,
						"TANGENT":28
					},
					"indices":4,
					"material":0
				}
			]
		},
		{
			"name":"Range_00100m_18_Mesh",
			"primitives":[
				{
					"attributes":{
						"POSITION":29,
						"NORMAL":30,
						"TEXCOORD_0":31,
						"TANGENT":32
					},
					"indices":4,
					"material":1
				}
			]
		},
		{
			"name":"Range_00100m_90_Mesh",
			"primitives":[
				{
					"attributes":{
						"POSITION":33,
						"NORMAL":34,
						"TEXCOORD_0":35,
						"TANGENT":36
					},
					"indices":4,
					"material":2
				}
			]
		},
		{
			"name":"Range_00250m_02_Mesh",
			"primitives":[
				{
					"attributes":{
						"POSITION":37,
						"NORMAL":38,
						"TEXCOORD_0":39,
						"TANGENT":40
					},
					"indices":4,
					"material":0
				}
			]
		},
		{
			"name":"Range_00250m_18_Mesh",
			"primitives":[
				{
					"attributes":{
						"POSITION":41,
						"NORMAL":42,
						"TEXCOORD_0":43,
						"TANGENT":44
					},
					"indices":4,
					"material":1
				}
			]
		},
		{
			"name":"Range_00250m_90_Mesh",
			"primitives":[
				{
					"attributes":{
						"POSITION":45,
						"NORMAL":46,
						"TEXCOORD_0":47,
						"TANGENT":48
					},
					"indices":4,
					"material":2
				}
			]
		},
		{
			"name":"Range_00500m_02_Mesh",
			"primitives":[
				{
					"attributes":{
						"POSITION":49,
						"NORMAL":50,
						"TEXCOORD_0":51,
						"TANGENT":52
					},
					"indices":4,
					"material":0
				}
			]
		},
		{
			"name":"Range_00500m_18_Mesh",
			"primitives":[
				{
					"attributes":{
						"POSITION":53,
						"NORMAL":54,
						"TEXCOORD_0":55,
						"TANGENT":56
					},
					"indices":4,
					"material":1
				}
			]
		},
		{
			"name":"Range_00500m_90_Mesh",
			"primitives":[
				{
					"attributes":{
						"POSITION":57,
						"NORMAL":58,
						"TEXCOORD_0":59,
						"TANGENT":60
					},
					"indices":4,
					"material":2
				}
			]
		},
		{
			"name":"Range_01000m_02_Mesh",
			"primitives":[
				{
					"attributes":{
						"POSITION":61,
						"NORMAL":62,
						"TEXCOORD_0":63,
						"TANGENT":64
					},
					"indices":4,
					"material":0
				}
			]
		},
		{
			"name":"Range_01000m_18_Mesh",
			"primitives":[
				{
					"attributes":{
						"POSITION":65,
						"NORMAL":66,
						"TEXCOORD_0":67,
						"TANGENT":68
					},
					"indices":4,
					"material":1
				}
			]
		},
		{
			"name":"Range_01000m_90_Mesh",
			"primitives":[
				{
					"attributes":{
						"POSITION":69,
						"NORMAL":70,
						"TEXCOORD_0":71,
						"TANGENT":72
					},
					"indices":4,
					"material":2
				}
			]
		}
	],
	"accessors":[
		{
			"bufferView":0,
			"componentType":5126,
			"count":4,
			"max":[
				1,
				3,
				0
			],
			"min":[
				-1,
				-3,
				0
			],
			"type":"VEC3"
		},
		{
			"bufferView":1,
			"componentType":5126,
			"count":4,
			"type":"VEC3"
		},
		{
			"bufferView":2,
			"componentType":5126,
			"count":4,
			"type":"VEC2"
		},
		{
			"bufferView":3,
			"componentType":5126,
			"count":4,
			"type":"VEC4"
		},
		{
			"bufferView":4,
			"componentType":5123,
			"count":6,
			"type":"SCALAR"
		},
		{
			"bufferView":5,
			"componentType":5126,
			"count":4,
			"max":[
				1,
				3,
				0
			],
			"min":[
				-1,
				-3,
				0
			],
			"type":"VEC3"
		},
		{
			"bufferView":6,
			"componentType":5126,
			"count":4,
			"type":"VEC3"
		},
		{
			"bufferView":7,
			"componentType":5126,
			"count":4,
			"type":"VEC2"
		},
		{
			"bufferView":8,
			"componentType":5126,
			"count":4,
			"type":"VEC4"
		},
		{
			"bufferView":9,
			"componentType":5126,
			"count":4,
			"max":[
				1,
				3,
				0
			],
			"min":[
				-1,
				-3,
				0
			],
			"type":"VEC3"
		},
		{
			"bufferView":10,
			"componentType":5126,
			"count":4,
			"type":"VEC3"
		},
		{
			"bufferView":11,
			"componentType":5126,
			"count":4,
			"type":"VEC2"
		},
		{
			"bufferView":12,
			"componentType":5126,
			"count":4,
			"type":"VEC4"
		},
		{
			"bufferView":13,
			"componentType":5126,
			"count":4,
			"max":[
				1,
				3,
				0
			],
			"min":[
				-1,
				-3,
				0
			],
			"type":"VEC3"
		},
		{
			"bufferView":14,
			"componentType":5126,
			"count":4,
			"type":"VEC3"
		},
		{
			"bufferView":15,
			"componentType":5126,
			"count":4,
			"type":"VEC2"
		},
		{
			"bufferView":16,
			"componentType":5126,
			"count":4,
			"type":"VEC4"
		},
		{
			"bufferView":17,
			"componentType":5126,
			"count":4,
			"max":[
				1,
				3,
				0
			],
			"min":[
				-1,
				-3,
				0
			],
			"type":"VEC3"
		},
		{
			"bufferView":18,
			"componentType":5126,
			"count":4,
			"type":"VEC3"
		},
		{
			"bufferView":19,
			"componentType":5126,
			"count":4,
			"type":"VEC2"
		},
		{
			"bufferView":20,
			"componentType":5126,
			"count":4,
			"type":"VEC4"
		},
		{
			"bufferView":21,
			"componentType":5126,
			"count":4,
			"max":[
				1,
				3,
				0
			],
			"min":[
				-1,
				-3,
				0
			],
			"type":"VEC3"
		},
		{
			"bufferView":22,
			"componentType":5126,
			"count":4,
			"type":"VEC3"
		},
		{
			"bufferView":23,
			"componentType":5126,
			"count":4,
			"type":"VEC2"
		},
		{
			"bufferView":24,
			"componentType":5126,
			"count":4,
			"type":"VEC4"
		},
		{
			"bufferView":25,
			"componentType":5126,
			"count":4,
			"max":[
				1,
				3,
				0
			],
			"min":[
				-1,
				-3,
				0
			],
			"type":"VEC3"
		},
		{
			"bufferView":26,
			"componentType":5126,
			"count":4,
			"type":"VEC3"
		},
		{
			"bufferView":27,
			"componentType":5126,
			"count":4,
			"type":"VEC2"
		},
		{
			"bufferView":28,
			"componentType":5126,
			"count":4,
			"type":"VEC4"
		},
		{
			"bufferView":29,
			"componentType":5126,
			"count":4,
			"max":[
				1,
				3,
				0
			],
			"min":[
				-1,
				-3,
				0
			],
			"type":"VEC3"
		},
		{
			"bufferView":30,
			"componentType":5126,
			"count":4,
			"type":"VEC3"
		},
		{
			"bufferView":31,
			"componentType":5126,
			"count":4,
			"type":"VEC2"
		},
		{
			"bufferView":32,
			"componentType":5126,
			"count":4,
			"type":"VEC4"
		},
		{
			"bufferView":33,
			"componentType":5126,
			"count":4,
			"max":[
				1,
				3,
				0
			],
			"min":[
				-1,
				-3,
				0
			],
			"type":"VEC3"
		},
		{
			"bufferView":34,
			"componentType":5126,
			"count":4,
			"type":"VEC3"
		},
		{
			"bufferView":35,
			"componentType":5126,
			"count":4,
			"type":"VEC2"
		},
		{
			"bufferView":36,
			"componentType":5126,
			"count":4,
			"type":"VEC4"
		},
		{
			"bufferView":37,
			"componentType":5126,
			"count":4,
			"max":[
				1,
				3,
				0
			],
			"min":[
				-1,
				-3,
				0
			],
			"type":"VEC3"
		},
		{
			"bufferView":38,
			"componentType":5126,
			"count":4,
			"type":"VEC3"
		},
		{
			"bufferView":39,
			"componentType":5126,
			"count":4,
			"type":"VEC2"
		},
		{
			"bufferView":40,
			"componentType":5126,
			"count":4,
			"type":"VEC4"
		},
		{
			"bufferView":41,
			"componentType":5126,
			"count":4,
			"max":[
				1,
				3,
				0
			],
			"min":[
				-1,
				-3,
				0
			],
			"type":"VEC3"
		},
		{
			"bufferView":42,
			"componentType":5126,
			"count":4,
			"type":"VEC3"
		},
		{
			"bufferView":43,
			"componentType":5126,
			"count":4,
			"type":"VEC2"
		},
		{
			"bufferView":44,
			"componentType":5126,
			"count":4,
			"type":"VEC4"
		},
		{
			"bufferView":45,
			"componentType":5126,
			"count":4,
			"max":[
				1,
				3,
				0
			],
			"min":[
				-1,
				-3,
				0
			],
			"type":"VEC3"
		},
		{
			"bufferView":46,
			"componentType":5126,
			"count":4,
			"type":"VEC3"
		},
		{
			"bufferView":47,
			"componentType":5126,
			"count":4,
			"type":"VEC2"
		},
		{
			"bufferView":48,
			"componentType":5126,
			"count":4,
			"type":"VEC4"
		},
		{
			"bufferView":49,
			"componentType":5126,
			"count":4,
			"max":[
				1,
				3,
				0
			],
			"min":[
				-1,
				-3,
				0
			],
			"type":"VEC3"
		},
		{
			"bufferView":50,
			"componentType":5126,
			"count":4,
			"type":"VEC3"
		},
		{
			"bufferView":51,
			"componentType":5126,
			"count":4,
			"type":"VEC2"
		},
		{
			"bufferView":52,
			"componentType":5126,
			"count":4,
			"type":"VEC4"
		},
		{
			"bufferView":53,
			"componentType":5126,
			"count":4,
			"max":[
				1,
				3,
				0
			],
			"min":[
				-1,
				-3,
				0
			],
			"type":"VEC3"
		},
		{
			"bufferView":54,
			"componentType":5126,
			"count":4,
			"type":"VEC3"
		},
		{
			"bufferView":55,
			"componentType":5126,
			"count":4,
			"type":"VEC2"
		},
		{
			"bufferView":56,
			"componentType":5126,
			"count":4,
			"type":"VEC4"
		},
		{
			"bufferView":57,
			"componentType":5126,
			"count":4,
			"max":[
				1,
				3,
				0
			],
			"min":[
				-1,
				-3,
				0
			],
			"type":"VEC3"
		},
		{
			"bufferView":58,
			"componentType":5126,
			"count":4,
			"type":"VEC3"
		},
		{
			"bufferView":59,
			"componentType":5126,
			"count":4,
			"type":"VEC2"
		},
		{
			"bufferView":60,
			"componentType":5126,
			"count":4,
			"type":"VEC4"
		},
		{
			"bufferView":61,
			"componentType":5126,
			"count":4,
			"max":[
				1,
				3,
				0
			],
			"min":[
				-1,
				-3,
				0
			],
			"type":"VEC3"
		},
		{
			"bufferView":62,
			"componentType":5126,
			"count":4,
			"type":"VEC3"
		},
		{
			"bufferView":63,
			"componentType":5126,
			"count":4,
			"type":"VEC2"
		},
		{
			"bufferView":64,
			"componentType":5126,
			"count":4,
			"type":"VEC4"
		},
		{
			"bufferView":65,
			"componentType":5126,
			"count":4,
			"max":[
				1,
				3,
				0
			],
			"min":[
				-1,
				-3,
				0
			],
			"type":"VEC3"
		},
		{
			"bufferView":66,
			"componentType":5126,
			"count":4,
			"type":"VEC3"
		},
		{
			"bufferView":67,
			"componentType":5126,
			"count":4,
			"type":"VEC2"
		},
		{
			"bufferView":68,
			"componentType":5126,
			"count":4,
			"type":"VEC4"
		},
		{
			"bufferView":69,
			"componentType":5126,
			"count":4,
			"max":[
				1,
				3,
				0
			],
			"min":[
				-1,
				-3,
				0
			],
			"type":"VEC3"
		},
		{
			"bufferView":70,
			"componentType":5126,
			"count":4,
			"type":"VEC3"
		},
		{
			"bufferView":71,
			"componentType":5126,
			"count":4,
			"type":"VEC2"
		},
		{
			"bufferView":72,
			"componentType":5126,
			"count":4,
			"type":"VEC4"
		}
	],
	"bufferViews":[
		{
			"buffer":0,
			"byteLength":48,
			"byteOffset":0,
			"target":34962
		},
		{
			"buffer":0,
			"byteLength":48,
			"byteOffset":48,
			"target":34962
		},
		{
			"buffer":0,
			"byteLength":32,
			"byteOffset":96,
			"target":34962
		},
		{
			"buffer":0,
			"byteLength":64,
			"byteOffset":128,
			"target":34962
		},
		{
			"buffer":0,
			"byteLength":12,
			"byteOffset":192,
			"target":34963
		},
		{
			"buffer":0,
			"byteLength":48,
			"byteOffset":204,
			"target":34962
		},
		{
			"buffer":0,
			"byteLength":48,
			"byteOffset":252,
			"target":34962
		},
		{
			"buffer":0,
			"byteLength":32,
			"byteOffset":300,
			"target":34962
		},
		{
			"buffer":0,
			"byteLength":64,
			"byteOffset":332,
			"target":34962
		},
		{
			"buffer":0,
			"byteLength":48,
			"byteOffset":396,
			"target":34962
		},
		{
			"buffer":0,
			"byteLength":48,
			"byteOffset":444,
			"target":34962
		},
		{
			"buffer":0,
			"byteLength":32,
			"byteOffset":492,
			"target":34962
		},
		{
			"buffer":0,
			"byteLength":64,
			"byteOffset":524,
			"target":34962
		},
		{
			"buffer":0,
			"byteLength":48,
			"byteOffset":588,
			"target":34962
		},
		{
			"buffer":0,
			"byteLength":48,
			"byteOffset":636,
			"target":34962
		},
		{
			"buffer":0,
			"byteLength":32,
			"byteOffset":684,
			"target":34962
		},
		{
			"buffer":0,
			"byteLength":64,
			"byteOffset":716,
			"target":34962
		},
		{
			"buffer":0,
			"byteLength":48,
			"byteOffset":780,
			"target":34962
		},
		{
			"buffer":0,
			"byteLength":48,
			"byteOffset":828,
			"target":34962
		},
		{
			"buffer":0,
			"byteLength":32,
			"byteOffset":876,
			"target":34962
		},
		{
			"buffer":0,
			"byteLength":64,
			"byteOffset":908,
			"target":34962
		},
		{
			"buffer":0,
			"byteLength":48,
			"byteOffset":972,
			"target":34962
		},
		{
			"buffer":0,
			"byteLength":48,
			"byteOffset":1020,
			"target":34962
		},
		{
			"buffer":0,
			"byteLength":32,
			"byteOffset":1068,
			"target":34962
		},
		{
			"buffer":0,
			"byteLength":64,
			"byteOffset":1100,
			"target":34962
		},
		{
			"buffer":0,
			"byteLength":48,
			"byteOffset":1164,
			"target":34962
		},
		{
			"buffer":0,
			"byteLength":48,
			"byteOffset":1212,
			"target":34962
		},
		{
			"buffer":0,
			"byteLength":32,
			"byteOffset":1260,
			"target":34962
		},
		{
			"buffer":0,
			"byteLength":64,
			"byteOffset":1292,
			"target":34962
		},
		{
			"buffer":0,
			"byteLength":48,
			"byteOffset":1356,
			"target":34962
		},
		{
			"buffer":0,
			"byteLength":48,
			"byteOffset":1404,
			"target":34962
		},
		{
			"buffer":0,
			"byteLength":32,
			"byteOffset":1452,
			"target":34962
		},
		{
			"buffer":0,
			"byteLength":64,
			"byteOffset":1484,
			"target":34962
		},
		{
			"buffer":0,
			"byteLength":48,
			"byteOffset":1548,
			"target":34962
		},
		{
			"buffer":0,
			"byteLength":48,
			"byteOffset":1596,
			"target":34962
		},
		{
			"buffer":0,
			"byteLength":32,
			"byteOffset":1644,
			"target":34962
		},
		{
			"buffer":0,
			"byteLength":64,
			"byteOffset":1676,
			"target":34962
		},
		{
			"buffer":0,
			"byteLength":48,
			"byteOffset":1740,
			"target":34962
		},
		{
			"buffer":0,
			"byteLength":48,
			"byteOffset":1788,
			"target":34962
		},
		{
			"buffer":0,
			"byteLength":32,
			"byteOffset":1836,
			"target":34962
		},
		{
			"buffer":0,
			"byteLength":64,
			"byteOffset":1868,
			"target":34962
		},
		{
			"buffer":0,
			"byteLength":48,
			"byteOffset":1932,
			"target":34962
		},
		{
			"buffer":0,
			"byteLength":48,
			"byteOffset":1980,
			"target":34962
		},
		{
			"buffer":0,
			"byteLength":32,
			"byteOffset":2028,
			"target":34962
		},
		{
			"buffer":0,
			"byteLength":64,
			"byteOffset":2060,
			"target":34962
		},
		{
			"buffer":0,
			"byteLength":48,
			"byteOffset":2124,
			"target":34962
		},
		{
			"buffer":0,
			"byteLength":48,
			"byteOffset":2172,
			"target":34962
		},
		{
			"buffer":0,
			"byteLength":32,
			"byteOffset":2220,
			"target":34962
		},
		{
			"buffer":0,
			"byteLength":64,
			"byteOffset":2252,
			"target":34962
		},
		{
			"buffer":0,
			"byteLength":48,
			"byteOffset":2316,
			"target":34962
		},
		{
			"buffer":0,
			"byteLength":48,
			"byteOffset":2364,
			"target":34962
		},
		{
			"buffer":0,
			"byteLength":32,
			"byteOffset":2412,
			"target":34962
		},
		{
			"buffer":0,
			"byteLength":64,
			"byteOffset":2444,
			"target":34962
		},
		{
			"buffer":0,
			"byteLength":48,
			"byteOffset":2508,
			"target":34962
		},
		{
			"buffer":0,
			"byteLength":48,
			"byteOffset":2556,
			"target":34962
		},
		{
			"buffer":0,
			"byteLength":32,
			"byteOffset":2604,
			"target":34962
		},
		{
			"buffer":0,
			"byteLength":64,
			"byteOffset":2636,
			"target":34962
		},
		{
			"buffer":0,
			"byteLength":48,
			"byteOffset":2700,
			"target":34962
		},
		{
			"buffer":0,
			"byteLength":48,
			"byteOffset":2748,
			"target":34962
		},
		{
			"buffer":0,
			"byteLength":32,
			"byteOffset":2796,
			"target":34962
		},
		{
			"buffer":0,
			"byteLength":64,
			"byteOffset":2828,
			"target":34962
		},
		{
			"buffer":0,
			"byteLength":48,
			"byteOffset":2892,
			"target":34962
		},
		{
			"buffer":0,
			"byteLength":48,
			"byteOffset":2940,
			"target":34962
		},
		{
			"buffer":0,
			"byteLength":32,
			"byteOffset":2988,
			"target":34962
		},
		{
			"buffer":0,
			"byteLength":64,
			"byteOffset":3020,
			"target":34962
		},
		{
			"buffer":0,
			"byteLength":48,
			"byteOffset":3084,
			"target":34962
		},
		{
			"buffer":0,
			"byteLength":48,
			"byteOffset":3132,
			"target":34962
		},
		{
			"buffer":0,
			"byteLength":32,
			"byteOffset":3180,
			"target":34962
		},
		{
			"buffer":0,
			"byteLength":64,
			"byteOffset":3212,
			"target":34962
		},
		{
			"buffer":0,
			"byteLength":48,
			"byteOffset":3276,
			"target":34962
		},
		{
			"buffer":0,
			"byteLength":48,
			"byteOffset":3324,
			"target":34962
		},
		{
			"buffer":0,
			"byteLength":32,
			"byteOffset":3372,
			"target":34962
		},
		{
			"buffer":0,
			"byteLength":64,
			"byteOffset":3404,
			"target":34962
		}
	],
	"buffers":[
		{
			"byteLength":3468,
			"uri":"GGLabAtmosphereRange.bin"
		}
	]
}
